<?xml version="1.0" encoding="UTF-8" standalone="no"?><svg xmlns="http://www.w3.org/2000/svg" xmlns:xlink="http://www.w3.org/1999/xlink" fill="#9a001a" height="122.6" preserveAspectRatio="xMidYMid meet" version="1" viewBox="-0.7 -0.1 126.7 122.6" width="126.7" zoomAndPan="magnify"><g id="change1_1"><path d="M86.482,110.837c-0.538,0.127-1.085,0.234-1.632,0.342c-0.542,0.106-0.895,0.632-0.789,1.174 c0.094,0.477,0.512,0.808,0.98,0.808c0.063,0,0.128-0.006,0.193-0.019c0.573-0.112,1.146-0.226,1.708-0.358 c0.538-0.127,0.87-0.666,0.743-1.203C87.558,111.042,87.018,110.709,86.482,110.837z" fill="inherit"/><path d="M123.829,85.543c-0.462-0.302-1.082-0.172-1.384,0.29c-7.517,11.5-18.896,20.013-32.041,23.97 c-0.529,0.159-0.829,0.717-0.669,1.246c0.13,0.433,0.527,0.712,0.957,0.712c0.096,0,0.193-0.014,0.289-0.043 c13.596-4.093,25.365-12.896,33.139-24.79C124.421,86.465,124.291,85.845,123.829,85.543z" fill="inherit"/><path d="M43.873,2.66c0.163,0,0.329-0.04,0.481-0.124l1.2-0.66c0.484-0.267,0.66-0.875,0.394-1.358 c-0.266-0.483-0.874-0.659-1.358-0.394l-1.2,0.66c-0.484,0.267-0.66,0.875-0.394,1.358C43.179,2.473,43.52,2.66,43.873,2.66z" fill="inherit"/><path d="M17.89,31.18c0.128,0.055,0.261,0.081,0.392,0.081c0.389,0,0.758-0.228,0.92-0.608 c4.604-10.795,12.296-19.905,22.244-26.343c0.463-0.3,0.596-0.919,0.296-1.383c-0.299-0.463-0.918-0.597-1.383-0.296 C30.075,9.285,22.123,18.704,17.362,29.868C17.145,30.376,17.382,30.963,17.89,31.18z" fill="inherit"/><path d="M76.93,107.277l1.306-1.176l0.356-0.046c10.019-1.001,19.501-4.85,27.422-11.131l-0.006-0.007 c0.005-0.004,0.009-0.009,0.014-0.013l0,0c5.762-4.561,10.602-10.405,13.995-16.9c3.915-7.475,5.984-15.917,5.984-24.414 c0-18.594-9.5-35.456-25.411-45.104C92.379,3.497,82.932,0.86,73.272,0.86c-6.636,0-13.098,1.214-19.204,3.608 C40.298,9.85,29.352,20.863,24.039,34.681l0.007,0.003c-0.001,0.003-0.001,0.007-0.002,0.01l-0.005-0.002 c-0.764,1.991-1.408,4.044-1.927,6.124l-6.647-7.397c-0.971-1.075-2.096-1.895-3.344-2.437c-3.468-1.507-8.111-2.794-10.536-0.37 c-2.32,2.32-1.669,6.816-0.713,10.185c0.427,1.474,1.16,2.793,2.176,3.92L14.554,57.53L14,62.077 c-2.557,0.812-4.331,2.545-5.278,5.163c-0.126,0.349-0.049,0.739,0.201,1.013l2.912,3.202L9.493,78.27 c-2.601,0.989-4.508,2.796-5.672,5.379c-0.163,0.362-0.097,0.786,0.169,1.081l2.776,3.076L4.422,95.83 c-0.306,1.048-0.038,2.203,0.701,3.013l1.223,1.344c1.174,1.277,3.117,1.38,4.428,0.233L29.9,83.554 c6.348,9.169,15.549,16.2,26.017,19.84c0.078,0.03,1.804,0.683,3.422,1.178l1.775,1.782l-5.502,11.42 c-0.159,0.404-0.239,0.823-0.239,1.246c0,0.834,0.306,1.638,0.866,2.268c0.669,0.745,1.598,1.125,2.53,1.125 c0.806,0,1.614-0.283,2.262-0.859l8.83-7.926l3.962,2.288c0.373,0.215,0.844,0.167,1.166-0.121l3.553-3.182 c0.322-0.29,0.421-0.753,0.246-1.149L76.93,107.277z M106.868,91.587c0.085-1.474-0.13-3.184-1.271-4.356 c-0.959-0.98-2.442-1.485-4.409-1.501c-1.414-0.008-2.744-0.632-3.651-1.714c-0.428-0.509-0.857-1.072-1.302-1.656 c-2.533-3.323-5.681-7.459-12.162-6.815c-2.816,0.279-5.177,2.033-7.018,5.217c-0.909,1.579-2.73,2.518-4.54,2.353 c-1.346-0.125-3.117-0.187-4.874,0.479c-2.775,1.04-3.955,3.272-4.46,5.01l-16.34-20.192l19.831-18.161 c2.987,3.293,6.642,5.271,10.898,5.85c3.236,0.43,5.908,2.586,6.806,5.494c1.46,4.731,4.35,10.73,9.827,12.439 c3.872,1.209,8.11,0.781,12.261-1.238c1.95-0.963,4.302-0.453,5.473,1.183c1.351,1.898,3.274,3.288,5.722,4.149 C114.871,83.162,111.193,87.762,106.868,91.587z M25.114,37.647c0.608,0.821,1.515,1.6,2.838,1.863 c0.313,0.064,0.66,0.096,1.041,0.096c1.245,0,2.846-0.342,4.777-1.021c1.149-0.397,2.359-0.462,3.492-0.184 c1.825,0.453,4.473,0.688,6.727-0.773c1.335-0.87,2.307-2.267,2.891-4.156c0.608-1.994,2.09-3.537,3.958-4.126 c3.603-1.112,5.859-3.108,6.526-5.777c0.573-2.332,0.136-4.646-1.301-6.881c-1.097-1.702-1.352-3.743-0.718-5.744 c0.497-1.554,0.559-3.201,0.237-4.9c5.643-2.105,11.587-3.184,17.69-3.184c8.759,0,17.334,2.255,24.905,6.531 c-3.54,2.483-5.846,5.532-6.848,9.087c-0.555,1.967-2.351,3.363-4.467,3.473c-6.578,0.327-10.888,1.326-12.808,2.966 c-1.565,1.33-2.644,3.168-3.204,5.461c-0.414,1.667-1.382,3.042-2.65,3.77c-0.725,0.409-1.337,0.934-1.824,1.565 c-1.189,1.559-1.263,3.578-1.176,4.779l-7.226,1.294l-2.757-3.084c-0.233-0.261-0.586-0.381-0.93-0.316 c-3.112,0.583-5.184,2.307-6.167,5.125l-6.935,1.572l-2.888-3.24c-0.252-0.283-0.641-0.4-1.009-0.299 c-2.588,0.703-4.48,2.278-5.633,4.685l-4.614,0.073l-3.299-3.671C24.116,40.95,24.573,39.283,25.114,37.647z M31.409,82.222 l3.01-2.659l21.693,21.771C46.146,97.749,37.422,90.995,31.409,82.222z M74.196,113.822l-3.963-2.289 c-0.374-0.216-0.846-0.167-1.168,0.122l-9.367,8.407c-0.573,0.511-1.458,0.46-1.968-0.106c-0.23-0.26-0.357-0.592-0.357-0.936 c0-0.168,0.035-0.347,0.071-0.446l5.78-11.99c0.184-0.382,0.107-0.839-0.192-1.14l-27.86-27.96 c-0.195-0.195-0.452-0.294-0.708-0.294c-0.236,0-0.473,0.083-0.662,0.25L9.453,98.918c-0.482,0.424-1.2,0.388-1.631-0.081 l-1.22-1.34c-0.272-0.298-0.371-0.722-0.259-1.106l2.5-8.56c0.097-0.333,0.015-0.693-0.218-0.95l-2.697-2.988 c1.019-1.913,2.552-3.19,4.669-3.893c0.296-0.099,0.529-0.329,0.631-0.624l2.69-7.83c0.119-0.346,0.04-0.728-0.206-0.998 l-2.888-3.176c0.838-1.877,2.258-3.038,4.324-3.539c0.405-0.098,0.707-0.437,0.757-0.851l0.69-5.66 c0.035-0.287-0.056-0.574-0.249-0.789L4.535,43.38c-0.813-0.902-1.4-1.958-1.741-3.133c-1.125-3.968-1.051-6.964,0.205-8.22 c1.253-1.252,4.286-0.965,8.324,0.79c0.984,0.428,1.878,1.082,2.655,1.942l11.879,13.219c0.194,0.215,0.464,0.339,0.76,0.332 l5.71-0.09c0.402-0.006,0.761-0.252,0.911-0.625c0.801-1.979,2.111-3.272,3.995-3.939l2.852,3.199 c0.243,0.271,0.613,0.389,0.968,0.31l8.07-1.83c0.357-0.081,0.642-0.351,0.741-0.703c0.63-2.228,2.023-3.593,4.251-4.16 l2.741,3.064c0.232,0.259,0.581,0.376,0.922,0.318l8.708-1.56c0.446-0.081,0.895,0.076,1.196,0.418l1.069,1.209 c0.461,0.523,0.419,1.331-0.095,1.8l-23.86,21.851c-0.39,0.357-0.435,0.956-0.102,1.366l24.82,30.67 c0.267,0.33,0.713,0.454,1.112,0.313l12.479-4.44c0.511-0.145,1.049,0.009,1.408,0.402c0.296,0.325,0.358,0.683,0.358,0.926 c0,0.401-0.164,0.77-0.459,1.037l-9.361,8.431c-0.32,0.29-0.419,0.752-0.244,1.147l1.855,4.186L74.196,113.822z" fill="inherit"/><path d="M66.243,59.422c-3.018-0.461-6.656,1.919-8.922,4.486c-2.554,2.894-3.597,6.037-2.861,8.625 c0.908,3.191,4.139,5.529,8.433,6.101c0.623,0.083,1.27,0.126,1.927,0.126c3.374,0,6.984-1.145,8.668-3.943 c1.491-2.47,1.485-5.73-0.016-8.946C71.868,62.435,68.964,59.844,66.243,59.422z" fill="inherit"/></g></svg>