<?xml version="1.0" encoding="UTF-8"?><svg xmlns="http://www.w3.org/2000/svg" xmlns:xlink="http://www.w3.org/1999/xlink" height="367.1" preserveAspectRatio="xMidYMid meet" version="1.0" viewBox="-1.1 -0.7 501.8 367.1" width="501.8" zoomAndPan="magnify"><g id="change1_1"><path d="M497.37,259.605c2.249,17.067-9.802,32.781-26.864,35.029l-168.994,22.268L90.428,364.805c-0.002,0-0.003,0.001-0.005,0.002 l-2.66,0.603l-0.68,0.154c-2.326,0.528-4.666,0.79-6.987,0.79c-4.609,0-9.152-1.034-13.406-3.076 c-8.651-4.154-14.83-11.899-16.953-21.252l-1.107-4.877c-4.448-4.71-7.346-10.723-8.217-17.332l-5.93-45.007L0.785,126.315 c-1.845-8.129-0.413-16.491,4.031-23.544c1.779-2.823,3.961-5.294,6.452-7.37c0.202-6.477,2.407-12.714,6.43-17.958 c5.075-6.615,12.421-10.857,20.685-11.947l213.114-28.081L412.918,0.783c0.332-0.075,0.665-0.142,0.998-0.209 c0.02-0.004,0.04-0.006,0.06-0.01c0.005-0.001,0.009-0.004,0.014-0.005c6.602-1.262,13.302-0.371,19.259,2.493 c1.265,0.608,2.499,1.299,3.688,2.084c3.719,2.431,6.816,5.577,9.157,9.224c3.919,1.119,7.611,3.01,10.876,5.625 c6.354,5.044,10.441,12.262,11.502,20.32l4.4,33.394c0.007,0.033,0.013,0.068,0.017,0.103l5.816,44.136 c0.005,0.033,0.008,0.067,0.01,0.1l8.976,68.125c0.007,0.033,0.013,0.068,0.017,0.103l0.957,7.264l4.032,17.767 c0.002,0.008,0.001,0.017,0.002,0.025l6.513,28.7c1.501,6.616,0.834,13.384-1.859,19.476L497.37,259.605z"/></g><g id="change2_1"><path d="M88.922,362.089l-2.499,0.566c-5.863,1.33-11.809,0.797-17.277-1.539l4.269-13.904 c0.138,0.004,0.278-0.005,0.415-0.035l21.147-4.799L88.922,362.089z M309.982,27.202l-21.574,4.896l-6.055,19.71l21.574-4.896 L309.982,27.202z M222.011,313.546l-21.574,4.896l-6.055,19.71l21.574-4.896L222.011,313.546z M321.42,309.322l21.574-4.895 l6.055-19.71l-21.574,4.895L321.42,309.322z M409.392,22.977l16.78-3.808c0.109-0.025,0.22-0.037,0.33-0.037 c0.279,0,0.555,0.078,0.795,0.23c0.335,0.211,0.572,0.546,0.659,0.931l0.988,4.355l5.413-17.615 c-5.693-3.446-12.344-4.744-18.93-3.698L409.392,22.977z M470.63,208.322l8.527,37.573l10.546-34.327l-8.527-37.573L470.63,208.322z M448.458,280.493l21.574-4.896l6.055-19.71l-21.574,4.896L448.458,280.493z M31.097,165.599l-8.527-37.573l-10.546,34.326 l8.527,37.574L31.097,165.599z M55.901,84.863l-21.574,4.896l-6.055,19.71l21.574-4.896L55.901,84.863z M155.309,80.639 l21.579-4.897l6.055-19.71l-21.58,4.897L155.309,80.639z M81.838,299.485l-38.85-171.193L218.151,88.54l38.85,171.194 l-45.209-36.343c-3.149-2.53-6.687-3.514-9.962-2.772c-3.275,0.743-6.041,3.158-7.79,6.801l-3.084,6.428l-3.369-3.64 c-0.559-0.604-1.503-0.641-2.107-0.082c-0.604,0.56-0.641,1.503-0.081,2.107l4.17,4.505l-14.56,30.349l-4.353,9.066 c-0.004,0.009-0.006,0.018-0.01,0.027l-1.361,2.836l-36.547-29.381l1.817-5.864c0.244-0.787-0.196-1.622-0.983-1.865 c-0.786-0.244-1.622,0.196-1.865,0.983l-1.467,4.737l-5.557-4.467c-3.15-2.53-6.687-3.517-9.962-2.771 c-2.388,0.542-4.5,1.982-6.15,4.129c-0.614,0.798-1.169,1.686-1.644,2.674l-7.444,15.515c-1.609,3.353-3.217,6.707-4.825,10.061 L81.838,299.485z M110.262,227.218c-0.559-0.604-1.503-0.64-2.107-0.082l-9.131,8.451c-0.604,0.56-0.641,1.503-0.081,2.107 c0.294,0.317,0.694,0.478,1.095,0.478c0.362,0,0.726-0.131,1.012-0.397l9.131-8.451 C110.784,228.766,110.821,227.823,110.262,227.218z M165.642,256.228l-2.753-12.133c-0.182-0.803-0.979-1.307-1.784-1.124 c-0.803,0.182-1.306,0.981-1.124,1.784l2.753,12.133c0.157,0.692,0.772,1.161,1.453,1.161c0.109,0,0.22-0.012,0.331-0.037 C165.321,257.83,165.825,257.031,165.642,256.228z M199.708,144.431c-0.559-0.605-1.503-0.641-2.107-0.082l-9.131,8.451 c-0.604,0.56-0.641,1.503-0.081,2.107c0.294,0.317,0.694,0.478,1.095,0.478c0.362,0,0.726-0.131,1.012-0.397l9.131-8.451 C200.231,145.979,200.267,145.035,199.708,144.431z M222.155,190.582c-2.623-2.113-6.124-2.953-9.444-2.199 c-5.86,1.33-9.587,7.095-8.445,12.952c-2.556,2.251-3.7,5.713-2.933,9.092c0.985,4.34,4.855,7.292,9.13,7.292 c0.684,0,1.378-0.076,2.073-0.233l22.163-5.03c2.439-0.553,4.516-2.023,5.85-4.14c1.333-2.116,1.763-4.624,1.209-7.063 c-0.701-3.089-2.904-5.591-5.836-6.694c-1.621-4.104-6.045-6.491-10.425-5.499C224.283,189.336,223.148,189.854,222.155,190.582z M201.233,179.283c0.157,0.692,0.772,1.161,1.453,1.161c0.109,0,0.22-0.012,0.331-0.037l12.133-2.753 c0.803-0.183,1.306-0.981,1.124-1.784c-0.182-0.803-0.981-1.306-1.784-1.124l-12.133,2.753 C201.554,177.682,201.05,178.48,201.233,179.283z M183.45,123.713c-2.556,2.251-3.7,5.713-2.933,9.092 c0.985,4.34,4.856,7.292,9.13,7.292c0.684,0,1.379-0.076,2.073-0.233l22.163-5.03c5.035-1.143,8.201-6.169,7.059-11.204 c-0.701-3.088-2.904-5.59-5.836-6.693c-1.621-4.104-6.045-6.49-10.425-5.499c-1.214,0.276-2.349,0.795-3.343,1.522 c-2.623-2.114-6.124-2.953-9.444-2.199c-2.893,0.657-5.358,2.401-6.939,4.91C183.436,118.084,182.906,120.927,183.45,123.713z M165.077,140.22c0.147,0.046,0.296,0.067,0.442,0.067c0.636,0,1.226-0.411,1.424-1.05l3.682-11.884 c0.244-0.786-0.196-1.622-0.983-1.865c-0.787-0.244-1.622,0.196-1.866,0.983l-3.682,11.884 C163.851,139.141,164.291,139.976,165.077,140.22z M133.008,125.899l2.753,12.133c0.157,0.692,0.772,1.161,1.453,1.161 c0.109,0,0.22-0.012,0.331-0.037c0.803-0.182,1.306-0.981,1.124-1.784l-2.753-12.133c-0.182-0.803-0.981-1.308-1.784-1.124 C133.329,124.297,132.826,125.095,133.008,125.899z M102.612,142.788l8.451,9.131c0.294,0.317,0.694,0.478,1.095,0.478 c0.362,0,0.726-0.131,1.012-0.397c0.604-0.56,0.641-1.503,0.081-2.107l-8.451-9.131c-0.559-0.604-1.503-0.641-2.107-0.082 C102.089,141.24,102.052,142.183,102.612,142.788z M84.732,172.612l11.884,3.682c0.147,0.046,0.295,0.067,0.442,0.067 c0.636,0,1.226-0.411,1.424-1.05c0.244-0.786-0.196-1.622-0.983-1.865l-11.884-3.682c-0.786-0.246-1.622,0.196-1.865,0.983 C83.505,171.533,83.945,172.368,84.732,172.612z M74.271,216.484c0.695,0,1.396-0.078,2.091-0.235l22.163-5.03 c2.439-0.553,4.517-2.023,5.85-4.14c0.025-0.04,0.044-0.082,0.069-0.122c6.752,19.109,24.946,31.732,44.877,31.731 c3.479,0,7.012-0.385,10.544-1.186c25.607-5.812,41.712-31.372,35.9-56.978c-2.815-12.403-10.293-22.971-21.054-29.751 c-10.762-6.781-23.52-8.964-35.924-6.15c-12.404,2.815-22.97,10.292-29.751,21.054c-5.478,8.695-7.952,18.693-7.217,28.755 c-0.845-0.591-1.782-1.063-2.804-1.352c-1.498-5.776-7.347-9.366-13.208-8.039c-3.32,0.753-6.116,3.022-7.57,6.06 c-1.21-0.227-2.457-0.206-3.672,0.07c-4.38,0.994-7.34,5.059-7.031,9.46c-2.169,2.261-3.076,5.469-2.375,8.557 c0.554,2.439,2.024,4.516,4.14,5.85C70.811,215.993,72.525,216.484,74.271,216.484z" fill="#5166F2"/></g><g id="change3_1"><path d="M105.794,200.942c-2.639-11.628-0.591-23.587,5.765-33.675c6.356-10.088,16.26-17.097,27.888-19.735 c3.312-0.752,6.65-1.123,9.965-1.123c8.323,0,16.495,2.342,23.709,6.887c10.088,6.356,17.097,16.261,19.735,27.888 c5.447,24.003-9.649,47.963-33.652,53.41C135.201,240.041,111.241,224.945,105.794,200.942z" fill="#E4E13E"/></g><g id="change4_1"><path d="M43.371,319.426l-1.714-13.011l5.37,23.662C45.133,326.859,43.875,323.253,43.371,319.426z M20.065,79.258 c-3.136,4.088-5.054,8.842-5.641,13.828c2.994-1.908,6.326-3.305,9.891-4.114l195.577-44.384L38.773,68.453 C31.299,69.438,24.654,73.275,20.065,79.258z M455.112,22.317c-2.118-1.696-4.442-3.036-6.888-4.044 c0.872,1.92,1.561,3.939,2.037,6.039l7.473,32.929c0.002,0.007,0.006,0.012,0.008,0.019l9.852,43.413 c0.002,0.009,0.001,0.018,0.002,0.026l13.895,61.226l-5.744-43.593c-0.005-0.033-0.008-0.067-0.01-0.1L469.949,74.3 c-0.007-0.034-0.013-0.068-0.017-0.103l-4.414-33.502C464.557,33.407,460.862,26.881,455.112,22.317z M494.648,264.384 c-4.455,6.617-11.147,11.218-18.96,12.991L333.12,309.729l136.996-18.051C484.071,289.838,494.318,278.04,494.648,264.384z M158.492,327.961l-21.574,4.895l-6.056,19.71l21.574-4.895L158.492,327.961z M246.463,41.617l-21.574,4.896l-6.055,19.71 l21.574-4.896L246.463,41.617z M345.872,37.394l21.574-4.896l6.055-19.71l-21.574,4.896L345.872,37.394z M257.901,323.737 l21.574-4.896l6.055-19.71l-21.574,4.896L257.901,323.737z M464.598,100.946l-8.527-37.573l-10.546,34.327l8.527,37.573 L464.598,100.946z M412.569,270.301l-21.574,4.896l-6.055,19.71l21.574-4.896L412.569,270.301z M91.79,95.054l21.574-4.896 l6.055-19.71l-21.574,4.896L91.79,95.054z M47.675,238.649l-10.546,34.327l8.527,37.573l10.546-34.327L47.675,238.649z M247.261,255.73c-0.908,0.924-1.931,1.469-3.058,1.612c-3.048,0.384-5.915-2.197-8.688-4.693c-1.785-1.607-3.63-3.268-5.061-3.652 c-0.58-0.156-1.138-0.105-1.418,0.13c-0.392,0.326-0.393,1.115-0.358,1.557c0.092,1.177,0.482,2.396,0.895,3.687 c0.278,0.869,0.564,1.767,0.763,2.677c0.762,3.505,0.522,6.51-0.713,8.932c-1.543,3.056-4.272,4.541-7.119,3.87 c-3.085-0.721-5.324-3.877-7.353-7.047l-0.522-0.829c-0.914-1.461-1.858-2.972-2.917-3.78c-0.511-0.39-0.772-0.41-0.814-0.393 c-0.201,0.078-0.809,0.768-1.208,2.994c-0.183,1.031-0.295,2.149-0.404,3.231c-0.237,2.364-0.482,4.808-1.484,6.912 c-1.286,2.702-3.514,4.262-6.11,4.279h-0.041c-3.201,0.001-6.351-2.368-8.23-6.19c-0.449-0.911-0.819-2.274-1.21-3.718 c-0.296-1.093-0.795-2.934-1.243-3.871c-0.028,0.043-0.057,0.088-0.088,0.138c-0.87,1.403-1.585,3-2.342,4.692 c-0.85,1.899-1.729,3.862-2.865,5.578c-3.016,4.564-6.853,7.022-10.727,7.022c-0.718,0-1.436-0.095-2.152-0.266l-1.121,2.336 l21.217,17.057l69.228-15.711l-4.055-17.868L247.261,255.73z M189.178,298.834l-23.239-18.683 c-3.648,2.961-8.966,2.805-14.537-0.531c-1.751-1.052-3.38-2.435-4.955-3.77c-1.424-1.209-2.77-2.349-4.17-3.242 c-0.048-0.031-0.094-0.059-0.137-0.085c0.003,1.039,0.346,2.906,0.55,4.016c0.271,1.473,0.527,2.865,0.515,3.883 c-0.045,4.278-1.883,7.786-4.796,9.156c-2.35,1.103-5.031,0.657-7.354-1.227c-1.825-1.469-3.107-3.582-4.347-5.625 c-0.557-0.918-1.133-1.869-1.735-2.712c-1.324-1.83-2.172-2.227-2.383-2.172c-0.045,0.003-0.275,0.133-0.57,0.709 c-0.597,1.177-0.797,2.95-0.99,4.664l-0.112,0.972c-0.462,3.738-1.121,7.552-3.604,9.537c-1.047,0.845-2.274,1.266-3.56,1.266 c-1.493,0-3.065-0.566-4.529-1.688c-2.15-1.644-3.661-4.253-4.488-7.749c-0.213-0.903-0.341-1.83-0.465-2.727 c-0.187-1.347-0.363-2.62-0.794-3.725c-0.162-0.418-0.504-1.131-0.998-1.255c-0.352-0.084-0.873,0.105-1.325,0.494 c-1.13,0.967-2.079,3.265-2.996,5.487c-1.422,3.445-2.893,7.009-5.805,7.975c-1.079,0.359-2.238,0.309-3.457-0.134L82.9,304.164 l4.055,17.868L189.178,298.834z" fill="#DF7A2C"/></g><g id="change5_1"><path d="M447.353,24.972l7.391,32.566L444.2,91.859l-13.929-61.377l6.665-21.689 C442.203,12.788,445.876,18.46,447.353,24.972z M10.697,156.517l10.546-34.326l-2.072-9.13c-0.182-0.803,0.321-1.602,1.124-1.784 l4.623-1.049l6.055-19.71l-5.999,1.361c-7.352,1.669-13.615,6.101-17.635,12.481c-4.02,6.38-5.315,13.942-3.646,21.295 L10.697,156.517z M496.306,240.682l-5.28-23.267l-10.544,34.32l0.351,1.545c0.062,0.273,0.039,0.544-0.042,0.792 c-0.038,0.117-0.085,0.232-0.152,0.338c-0.004,0.006-0.011,0.01-0.015,0.016c-0.1,0.152-0.226,0.288-0.376,0.396 c-0.015,0.011-0.031,0.017-0.046,0.027c-0.136,0.09-0.288,0.16-0.455,0.203c-0.014,0.004-0.026,0.015-0.04,0.018l-0.268,0.061 l-6.055,19.709l1.643-0.373c7.353-1.669,13.615-6.101,17.635-12.482C496.682,255.604,497.976,248.039,496.306,240.682z M66.436,359.785l5.017-16.342l-13.928-61.374l-10.546,34.326l5.667,24.971C54.437,349.257,59.422,355.881,66.436,359.785z M88.437,95.813l6.055-19.71L59.255,84.1l-6.055,19.71L88.437,95.813z M387.639,275.963l-35.238,7.997l-6.055,19.709l35.238-7.997 L387.639,275.963z M180.243,74.979l35.238-7.997l6.055-19.71l-35.238,7.997L180.243,74.979z M451.158,261.548l-35.238,7.997 l-6.055,19.709l35.238-7.997L451.158,261.548z M455.378,141.112l13.927,61.37l10.544-34.32l-13.927-61.37L455.378,141.112z M116.718,89.395l35.238-7.997l6.055-19.71l-35.238,7.997L116.718,89.395z M307.281,46.149l35.238-7.997l6.055-19.71l-35.238,7.997 L307.281,46.149z M249.817,40.854l-6.055,19.71L279,52.567l6.055-19.71L249.817,40.854z M35.802,267.141l10.546-34.326 l-13.927-61.37l-10.546,34.326L35.802,267.141z M370.8,31.735l35.239-7.997l6.056-19.71l-35.24,7.997L370.8,31.735z M260.601,304.793l-35.238,7.997l-6.055,19.709l35.238-7.997L260.601,304.793z M197.082,319.208l-35.238,7.997l-6.055,19.709 l35.238-7.997L197.082,319.208z M133.563,333.622l-35.233,7.996l-6.055,19.709l35.232-7.996L133.563,333.622z M318.065,310.087 l6.055-19.709l-35.238,7.997l-6.055,19.709L318.065,310.087z M425.378,22.408l1.895,8.351c0.001,0.006,0.006,0.011,0.007,0.017 l15.249,67.193c0,0.001,0,0.001,0,0.002l9.852,43.413c0,0,0,0,0,0.001l15.252,67.208c0,0,0,0.001,0,0.001l9.852,43.413 c0,0,0,0.001,0,0.001l0.108,0.477l-0.746,0.169l-23.837,5.409c0,0-0.001,0-0.001,0l-38.59,8.757c0,0,0,0-0.001,0l-8.312,1.886 l-62.91,14.277l-17.225,3.909c-0.001,0-0.002,0.001-0.003,0.001l-38.585,8.756c-0.001,0-0.002,0-0.003,0l-24.928,5.657 c0,0-0.001,0-0.001,0l-38.59,8.757c0,0,0,0,0,0l-3.953,0.897l-72.072,16.356l-12.421,2.818c-0.001,0-0.001,0.001-0.002,0.001 l-60.788,13.795L22.413,113.856l4.005-0.909c0,0,0.001,0,0.001,0l24.928-5.657c0.001,0,0.002-0.001,0.002-0.001l38.586-8.757 c0.001,0,0.002,0,0.003,0l24.928-5.657c0,0,0,0,0,0l38.591-8.758c0,0,0,0,0,0l2.872-0.652l60.649-13.764c0.001,0,0.002,0,0.003,0 l24.928-5.657c0,0,0,0,0,0l38.591-8.758c0,0,0,0,0,0l24.928-5.657c0,0,0.001,0,0.001,0l38.589-8.757c0,0,0.001,0,0.002,0 l15.041-3.414L425.378,22.408z M420.78,73.956c-0.803,0.182-1.306,0.981-1.124,1.784l2.25,9.915 c0.157,0.692,0.772,1.161,1.453,1.161c0.109,0,0.22-0.012,0.332-0.037c0.803-0.182,1.306-0.981,1.124-1.784l-2.25-9.915 C422.382,74.276,421.582,73.773,420.78,73.956z M416.28,54.126c-0.803,0.182-1.306,0.981-1.124,1.784l2.25,9.915 c0.157,0.692,0.772,1.161,1.453,1.161c0.109,0,0.22-0.012,0.332-0.037c0.803-0.182,1.306-0.981,1.124-1.784l-2.25-9.915 C417.882,54.446,417.082,53.944,416.28,54.126z M407.705,42.718c0.182,0.803,0.982,1.306,1.784,1.124l2.785-0.632l0.632,2.785 c0.157,0.692,0.772,1.161,1.453,1.161c0.109,0,0.22-0.012,0.331-0.037c0.803-0.182,1.306-0.981,1.124-1.784l-0.962-4.239 c-0.182-0.804-0.983-1.306-1.784-1.124l-4.239,0.961C408.026,41.116,407.523,41.915,407.705,42.718z M401.049,105.271 c0.157,0.692,0.772,1.161,1.453,1.161c0.109,0,0.22-0.012,0.332-0.037l9.915-2.25c0.803-0.182,1.306-0.981,1.124-1.784 c-0.182-0.803-0.982-1.308-1.784-1.124l-9.915,2.25C401.37,103.669,400.867,104.468,401.049,105.271z M387.875,47.218 c0.157,0.692,0.772,1.161,1.453,1.161c0.109,0,0.22-0.012,0.331-0.037l9.915-2.25c0.803-0.182,1.306-0.981,1.124-1.784 c-0.182-0.803-0.982-1.308-1.784-1.124l-9.915,2.25C388.196,45.617,387.693,46.415,387.875,47.218z M381.219,109.771 c0.157,0.692,0.772,1.161,1.453,1.161c0.109,0,0.22-0.012,0.332-0.037l9.915-2.25c0.803-0.182,1.306-0.981,1.124-1.784 c-0.182-0.804-0.982-1.306-1.784-1.124l-9.915,2.25C381.54,108.169,381.037,108.968,381.219,109.771z M368.045,51.719 c0.157,0.692,0.772,1.161,1.453,1.161c0.109,0,0.22-0.012,0.331-0.037l9.915-2.25c0.803-0.182,1.306-0.981,1.124-1.784 c-0.182-0.804-0.982-1.309-1.784-1.124l-9.915,2.25C368.366,50.117,367.863,50.915,368.045,51.719z M367.228,106.96 c-0.803,0.182-1.306,0.981-1.124,1.784l0.962,4.239c0.088,0.385,0.325,0.721,0.659,0.931c0.24,0.151,0.516,0.23,0.795,0.23 c0.11,0,0.221-0.012,0.33-0.037l4.239-0.962c0.803-0.182,1.306-0.981,1.124-1.784c-0.182-0.804-0.982-1.307-1.784-1.124 l-2.785,0.632l-0.632-2.785C368.83,107.28,368.03,106.778,367.228,106.96z M362.728,87.13c-0.803,0.182-1.306,0.981-1.124,1.784 l2.25,9.915c0.157,0.692,0.772,1.161,1.453,1.161c0.109,0,0.22-0.012,0.332-0.037c0.803-0.182,1.306-0.981,1.124-1.784l-2.25-9.915 C364.33,87.45,363.53,86.948,362.728,87.13z M362.262,78.339l-2.25-9.915c-0.182-0.803-0.982-1.309-1.784-1.124 c-0.803,0.182-1.306,0.981-1.124,1.784l2.25,9.915c0.157,0.692,0.772,1.161,1.453,1.161c0.109,0,0.22-0.012,0.331-0.037 C361.941,79.941,362.444,79.142,362.262,78.339z M353.891,54.931l0.962,4.239c0.157,0.692,0.772,1.161,1.453,1.161 c0.109,0,0.22-0.012,0.332-0.037c0.803-0.182,1.306-0.981,1.124-1.784l-0.632-2.785l2.785-0.632 c0.803-0.182,1.306-0.981,1.124-1.784c-0.182-0.804-0.982-1.306-1.784-1.124l-4.239,0.962c-0.386,0.087-0.721,0.325-0.931,0.659 C353.873,54.141,353.804,54.545,353.891,54.931z M274.627,168.688c0.157,0.692,0.772,1.161,1.453,1.161 c0.109,0,0.22-0.012,0.331-0.037l157.986-35.853c0.803-0.182,1.306-0.981,1.124-1.784c-0.182-0.804-0.982-1.307-1.784-1.124 l-157.986,35.853C274.948,167.087,274.445,167.885,274.627,168.688z M265.356,283.076l-44.627-196.65 c-0.087-0.385-0.325-0.721-0.659-0.931c-0.335-0.212-0.74-0.28-1.125-0.193L40.874,125.713c-0.803,0.182-1.306,0.981-1.124,1.784 l40.127,176.82c0,0,0,0,0,0l4.5,19.829c0.157,0.692,0.772,1.161,1.453,1.161c0.109,0,0.22-0.012,0.331-0.037l71.382-16.199 c0.001,0,0.002,0,0.003,0l106.686-24.212c0.386-0.087,0.721-0.325,0.932-0.659c0.105-0.167,0.175-0.352,0.208-0.544 C265.404,283.466,265.4,283.268,265.356,283.076z M280.035,269.489L239.835,92.346c-0.182-0.803-0.979-1.306-1.784-1.124 c-0.803,0.182-1.306,0.981-1.124,1.784l40.2,177.144c0.157,0.692,0.772,1.161,1.453,1.161c0.109,0,0.22-0.012,0.331-0.037 C279.714,271.091,280.218,270.292,280.035,269.489z M282.133,195.024l157.986-35.853c0.803-0.182,1.306-0.981,1.124-1.784 c-0.182-0.804-0.982-1.306-1.784-1.124l-157.986,35.853c-0.803,0.182-1.306,0.981-1.124,1.784c0.157,0.692,0.772,1.161,1.453,1.161 C281.911,195.061,282.022,195.049,282.133,195.024z M287.854,220.235l157.986-35.853c0.803-0.182,1.306-0.981,1.124-1.784 c-0.182-0.804-0.982-1.306-1.784-1.124l-157.986,35.853c-0.803,0.182-1.306,0.981-1.124,1.784c0.157,0.692,0.772,1.161,1.453,1.161 C287.632,220.272,287.743,220.26,287.854,220.235z M452.685,207.809c-0.182-0.803-0.982-1.309-1.784-1.124l-157.986,35.853 c-0.803,0.182-1.306,0.981-1.124,1.784c0.157,0.692,0.772,1.161,1.453,1.161c0.109,0,0.22-0.012,0.332-0.037l157.986-35.853 C452.364,209.411,452.868,208.612,452.685,207.809z M427.064,94.91c-0.182-0.804-0.982-1.307-1.784-1.124 c-0.803,0.182-1.306,0.981-1.124,1.784l0.632,2.785l-2.785,0.632c-0.803,0.182-1.306,0.981-1.124,1.784 c0.157,0.692,0.772,1.161,1.453,1.161c0.109,0,0.22-0.012,0.332-0.037l4.239-0.962c0.386-0.087,0.721-0.325,0.931-0.659 c0.211-0.335,0.28-0.739,0.193-1.125L427.064,94.91z M183.185,270.198c1.002-1.512,1.793-3.28,2.631-5.151 c0.764-1.707,1.555-3.473,2.528-5.043c0.885-1.435,1.9-2.079,3.012-1.921c2.069,0.3,2.84,3.147,3.733,6.443 c0.337,1.243,0.685,2.528,1.007,3.181c1.374,2.795,3.5,4.525,5.554,4.525h0.023c1.429-0.009,2.649-0.925,3.437-2.579 c0.779-1.635,0.988-3.72,1.21-5.927c0.114-1.137,0.232-2.312,0.435-3.457c0.519-2.895,1.549-4.661,3.063-5.249 c0.802-0.312,2.096-0.426,3.703,0.801c1.49,1.137,2.581,2.882,3.636,4.57l0.506,0.803c1.623,2.536,3.523,5.284,5.522,5.751 c1.46,0.349,2.872-0.522,3.778-2.316c0.917-1.799,1.07-4.134,0.458-6.948c-0.168-0.772-0.422-1.564-0.69-2.404 c-0.446-1.396-0.908-2.84-1.027-4.363c-0.175-2.25,0.678-3.461,1.424-4.082c1.047-0.871,2.54-1.133,4.096-0.717 c2.123,0.57,4.145,2.39,6.285,4.316c2.169,1.953,4.627,4.154,6.32,3.952c0.167-0.021,0.564-0.071,1.094-0.533 c-11.662-9.383-23.331-18.759-34.999-28.132c0,0,0,0-0.001,0c-2.424-1.949-5.063-2.726-7.431-2.19 c-2.368,0.537-4.414,2.378-5.76,5.184l-3.978,8.292c-0.015,0.039-0.031,0.078-0.05,0.116l-18.583,38.706 C178.656,276.414,182.144,271.773,183.185,270.198z M140.342,269.66c0.933-0.626,2.126-0.477,3.545,0.438 c1.565,0.998,3.051,2.259,4.489,3.478c1.552,1.317,3.019,2.561,4.56,3.487c1.619,0.97,6.779,3.654,10.605,1.164l-33.463-26.896 c-0.033-0.027-0.066-0.055-0.097-0.084l-7.166-5.762c-2.424-1.948-5.063-2.725-7.431-2.189c-2.371,0.537-4.42,2.379-5.769,5.186 l-7.444,15.515c-3.993,8.321-7.986,16.643-11.975,24.967c0.677,0.189,1.057,0.062,1.216,0.009c1.617-0.537,2.877-3.59,3.989-6.283 c1.1-2.666,2.14-5.184,3.812-6.614c0.94-0.807,2.022-1.234,3.074-1.234c0.311,0,0.618,0.037,0.919,0.113 c0.942,0.237,2.236,0.962,3.05,3.067c0.557,1.427,0.766,2.935,0.968,4.394c0.12,0.867,0.233,1.686,0.414,2.451 c0.665,2.808,1.808,4.851,3.399,6.067c1.602,1.229,3.249,1.401,4.408,0.465c1.614-1.29,2.143-4.588,2.512-7.577l0.109-0.941 c0.223-1.976,0.453-4.021,1.297-5.686c0.927-1.806,2.143-2.261,3-2.327c1.638-0.121,3.282,0.99,5.031,3.406 c0.672,0.943,1.278,1.94,1.863,2.905c1.157,1.907,2.251,3.709,3.672,4.853c1.425,1.156,2.919,1.456,4.212,0.847 c1.868-0.878,3.049-3.365,3.083-6.489c0.009-0.731-0.232-2.042-0.466-3.31C139.14,273.721,138.607,270.821,140.342,269.66z M101.851,205.49c0.909-1.442,1.201-3.152,0.824-4.814c-0.575-2.536-2.605-4.452-5.17-4.882c-0.629-0.106-1.122-0.6-1.225-1.23 c-0.027-0.163-0.056-0.325-0.093-0.488c-0.992-4.369-5.352-7.117-9.722-6.126c-2.81,0.637-5.025,2.656-5.925,5.399 c-0.125,0.382-0.401,0.698-0.763,0.875c-0.362,0.177-0.78,0.2-1.159,0.063c-0.662-0.238-1.354-0.358-2.05-0.358 c-0.45,0-0.901,0.05-1.345,0.151c-3.116,0.707-5.16,3.729-4.654,6.88c0.081,0.506-0.103,1.018-0.488,1.357 c-1.762,1.547-2.534,3.928-2.016,6.212c0.377,1.662,1.379,3.078,2.821,3.987c1.442,0.909,3.152,1.202,4.814,0.824l22.163-5.03 C99.527,207.934,100.943,206.932,101.851,205.49z M183.425,132.145c0.779,3.431,4.203,5.59,7.635,4.811l22.163-5.03 c3.431-0.779,5.59-4.204,4.811-7.635c-0.518-2.284-2.243-4.098-4.5-4.733c-0.493-0.139-0.881-0.521-1.026-1.013 c-0.904-3.06-4.051-4.904-7.168-4.198c-1.131,0.257-2.159,0.828-2.973,1.652c-0.283,0.287-0.665,0.441-1.073,0.444 c-0.403-0.003-0.787-0.169-1.066-0.46c-1.564-1.634-3.663-2.519-5.85-2.519c-0.605,0-1.216,0.067-1.825,0.206 c-2.117,0.48-3.919,1.756-5.076,3.592c-1.157,1.836-1.529,4.013-1.049,6.13c0.037,0.164,0.081,0.324,0.127,0.482 c0.178,0.613-0.053,1.27-0.575,1.637C183.854,127.005,182.85,129.609,183.425,132.145z M213.371,191.291 c-4.369,0.992-7.117,5.353-6.125,9.721c0.037,0.164,0.081,0.324,0.127,0.482c0.178,0.613-0.053,1.27-0.575,1.637 c-2.128,1.495-3.132,4.099-2.556,6.635c0.779,3.432,4.204,5.594,7.635,4.811l22.163-5.03c1.662-0.377,3.078-1.379,3.987-2.821 c0.909-1.442,1.201-3.152,0.824-4.814c-0.518-2.285-2.243-4.098-4.5-4.734c-0.493-0.139-0.881-0.521-1.026-1.013 c-0.904-3.061-4.052-4.905-7.168-4.198c-1.131,0.257-2.159,0.828-2.973,1.652c-0.283,0.286-0.664,0.417-1.073,0.444 c-0.403-0.003-0.787-0.169-1.065-0.46c-1.563-1.634-3.663-2.519-5.85-2.519C214.591,191.085,213.98,191.153,213.371,191.291z" fill="#FFF"/></g><g id="change1_2"><path d="M497.356,259.498c2.693-6.092,3.36-12.86,1.859-19.476l-6.513-28.7c-0.002-0.008,0-0.017-0.002-0.025l-4.032-17.767 l-0.957-7.264c-0.005-0.035-0.01-0.069-0.017-0.103l-8.976-68.125c-0.002-0.033-0.005-0.067-0.01-0.1l-5.816-44.136 c-0.005-0.035-0.01-0.069-0.017-0.103l-4.4-33.394c-1.062-8.058-5.148-15.276-11.502-20.32c-3.265-2.615-6.957-4.505-10.876-5.625 c-2.341-3.647-5.438-6.793-9.157-9.224c-1.19-0.785-2.423-1.476-3.688-2.084c-5.958-2.864-12.657-3.755-19.259-2.493 c-0.005,0.001-0.009,0.004-0.014,0.005c-0.02,0.004-0.04,0.006-0.06,0.01c-0.333,0.067-0.666,0.133-0.998,0.209L251.497,37.415 L38.384,65.497c-8.264,1.089-15.611,5.332-20.685,11.947c-4.023,5.244-6.228,11.481-6.43,17.958 c-2.492,2.075-4.673,4.547-6.452,7.37c-4.444,7.054-5.876,15.416-4.031,23.544l33.699,148.494l5.93,45.007 c0.871,6.609,3.769,12.622,8.217,17.332l1.107,4.877c2.122,9.353,8.302,17.098,16.953,21.252c4.253,2.042,8.796,3.076,13.406,3.076 c2.321,0,4.661-0.262,6.987-0.79l0.68-0.154l2.66-0.603c0.002,0,0.003-0.001,0.005-0.002l211.084-47.903l168.994-22.268 c17.062-2.248,29.113-17.962,26.864-35.029L497.356,259.498z M7.339,104.36c4.02-6.38,10.283-10.812,17.635-12.481l5.999-1.361 l-6.055,19.71l-4.623,1.049c-0.803,0.183-1.306,0.981-1.124,1.784l2.072,9.13l-10.546,34.326l-7.004-30.862 C2.025,118.303,3.32,110.74,7.339,104.36z M469.949,74.3l5.789,43.932c0.002,0.033,0.005,0.067,0.01,0.1l5.744,43.593L467.597,100.7 c-0.002-0.009,0-0.018-0.002-0.026l-9.852-43.413c-0.002-0.007-0.006-0.012-0.008-0.019l-7.473-32.929 c-0.477-2.1-1.165-4.119-2.037-6.039c2.447,1.008,4.77,2.348,6.888,4.044c5.749,4.564,9.445,11.09,10.405,18.377l4.414,33.502 C469.936,74.232,469.942,74.266,469.949,74.3z M219.308,332.499l6.055-19.709l35.238-7.997l-6.055,19.709L219.308,332.499z M155.789,346.914l6.055-19.709l35.238-7.997l-6.055,19.709L155.789,346.914z M92.276,361.327l6.055-19.709l35.233-7.996 l-6.055,19.709L92.276,361.327z M86.424,362.655c-5.863,1.33-11.809,0.797-17.277-1.539l4.269-13.904 c0.138,0.004,0.278-0.005,0.415-0.035l21.147-4.799l-6.055,19.71L86.424,362.655z M348.574,18.443l-6.055,19.71l-35.238,7.997 l6.055-19.71L348.574,18.443z M412.095,4.027l-6.056,19.71L370.8,31.735l6.055-19.71L412.095,4.027z M434.357,7.033l-5.413,17.615 l-0.988-4.355c-0.088-0.385-0.325-0.721-0.659-0.931c-0.24-0.151-0.516-0.23-0.795-0.23c-0.11,0-0.221,0.012-0.33,0.037 l-16.78,3.808l6.035-19.642C422.014,2.289,428.664,3.587,434.357,7.033z M279.475,318.841l-21.574,4.896l6.055-19.71l21.574-4.896 L279.475,318.841z M194.382,338.152l6.055-19.71l21.574-4.896l-6.055,19.71L194.382,338.152z M130.862,352.567l6.056-19.71 l21.574-4.895l-6.056,19.71L130.862,352.567z M45.656,310.548l-8.527-37.573l10.546-34.327l8.527,37.573L45.656,310.548z M12.024,162.352l10.546-34.326l8.527,37.573l-10.546,34.327L12.024,162.352z M34.326,89.759l21.574-4.896l-6.055,19.71 l-21.574,4.896L34.326,89.759z M94.493,76.103l-6.055,19.71l-35.238,7.997l6.055-19.71L94.493,76.103z M288.408,32.098l21.574-4.896 l-6.055,19.71l-21.574,4.896L288.408,32.098z M373.501,12.787l-6.055,19.71l-21.574,4.896l6.055-19.71L373.501,12.787z M456.071,63.373l8.527,37.573l-10.546,34.327l-8.527-37.573L456.071,63.373z M489.703,211.569l-10.546,34.327l-8.527-37.573 l10.546-34.327L489.703,211.569z M470.032,275.596l-21.574,4.896l6.055-19.71l21.574-4.896L470.032,275.596z M427.273,30.759 c0.001,0.006,0.006,0.011,0.007,0.017l15.249,67.193c0,0.001,0,0.001,0,0.002l9.852,43.413c0,0,0,0,0,0.001l15.252,67.208 c0,0,0,0.001,0,0.001l9.852,43.413c0,0,0,0.001,0,0.001l0.108,0.477l-0.746,0.169l-23.837,5.409c0,0-0.001,0-0.001,0l-38.59,8.757 c0,0,0,0-0.001,0l-8.312,1.886l-62.91,14.277l-17.225,3.909c-0.001,0-0.002,0.001-0.003,0.001l-38.585,8.756 c-0.001,0-0.002,0-0.003,0l-24.928,5.657c0,0-0.001,0-0.001,0l-38.59,8.757c0,0,0,0,0,0l-3.953,0.897l-72.072,16.356l-12.421,2.818 c-0.001,0-0.001,0.001-0.002,0.001l-60.788,13.795L22.413,113.856l4.005-0.909c0,0,0.001,0,0.001,0l24.928-5.657 c0.001,0,0.002-0.001,0.002-0.001l38.586-8.757c0.001,0,0.002,0,0.003,0l24.928-5.657c0,0,0,0,0,0l38.591-8.758c0,0,0,0,0,0 l2.872-0.652l60.649-13.764c0.001,0,0.002,0,0.003,0l24.928-5.657c0,0,0,0,0,0l38.591-8.758c0,0,0,0,0,0l24.928-5.657 c0,0,0.001,0,0.001,0l38.589-8.757c0,0,0.001,0,0.002,0l15.041-3.414l66.317-15.05L427.273,30.759z M182.944,56.032l-6.055,19.71 l-21.579,4.897l6.055-19.71L182.944,56.032z M119.42,70.448l-6.055,19.71L91.79,95.054l6.055-19.71L119.42,70.448z M384.939,294.908 l6.055-19.71l21.574-4.896l-6.055,19.71L384.939,294.908z M469.305,202.482l-13.927-61.37l10.544-34.32l13.927,61.37 L469.305,202.482z M218.833,66.224l6.055-19.71l21.574-4.896l-6.055,19.71L218.833,66.224z M215.481,66.982l-35.238,7.997 l6.056-19.71l35.238-7.997L215.481,66.982z M151.957,81.398l-35.238,7.997l6.055-19.71l35.238-7.997L151.957,81.398z M349.049,284.716l-6.055,19.71l-21.574,4.895l6.055-19.71L349.049,284.716z M352.401,283.96l35.238-7.997l-6.055,19.709 l-35.238,7.997L352.401,283.96z M415.92,269.545l35.238-7.997l-6.055,19.709l-35.238,7.997L415.92,269.545z M32.42,171.445 l13.927,61.37l-10.546,34.326l-13.927-61.369L32.42,171.445z M492.662,261.985c-4.02,6.381-10.282,10.813-17.635,12.482 l-1.643,0.373l6.055-19.709l0.268-0.061c0.015-0.003,0.026-0.014,0.04-0.018c0.167-0.043,0.319-0.112,0.455-0.203 c0.015-0.01,0.032-0.016,0.046-0.027c0.15-0.108,0.276-0.244,0.376-0.396c0.004-0.006,0.011-0.01,0.015-0.016 c0.067-0.106,0.114-0.221,0.152-0.338c0.081-0.248,0.104-0.519,0.042-0.792l-0.351-1.545l10.544-34.32l5.28,23.267 C497.976,248.039,496.682,255.604,492.662,261.985z M447.353,24.972l7.391,32.566L444.2,91.859l-13.929-61.377l6.665-21.689 C442.203,12.788,445.876,18.46,447.353,24.972z M279,52.567l-35.238,7.997l6.055-19.71l35.238-7.997L279,52.567z M24.314,88.972 c-3.564,0.809-6.897,2.206-9.891,4.114c0.588-4.986,2.506-9.74,5.641-13.828c4.59-5.983,11.234-9.82,18.709-10.805l181.118-23.866 L24.314,88.972z M47.026,330.077c-1.893-3.219-3.151-6.824-3.655-10.651l-1.714-13.011L47.026,330.077z M46.979,316.394 l10.546-34.326l13.928,61.374l-5.017,16.342c-7.013-3.904-11.999-10.528-13.79-18.42L46.979,316.394z M288.882,298.375l35.238-7.997 l-6.055,19.709l-35.238,7.997L288.882,298.375z M475.687,277.375c7.813-1.773,14.506-6.375,18.96-12.991 c-0.33,13.656-10.577,25.455-24.531,27.294L333.12,309.729L475.687,277.375z M280.035,269.489c0.182,0.803-0.321,1.602-1.124,1.784 c-0.111,0.025-0.222,0.037-0.331,0.037c-0.681,0-1.296-0.469-1.453-1.161l-40.2-177.144c-0.182-0.803,0.321-1.602,1.124-1.784 c0.805-0.182,1.602,0.321,1.784,1.124L280.035,269.489z M427.064,94.91l0.962,4.239c0.087,0.386,0.018,0.79-0.193,1.125 c-0.211,0.334-0.546,0.572-0.931,0.659l-4.239,0.962c-0.111,0.025-0.222,0.037-0.332,0.037c-0.681,0-1.296-0.469-1.453-1.161 c-0.182-0.803,0.321-1.602,1.124-1.784l2.785-0.632l-0.632-2.785c-0.182-0.803,0.321-1.602,1.124-1.784 C426.082,93.603,426.882,94.106,427.064,94.91z M401.049,105.271c-0.182-0.803,0.321-1.602,1.124-1.784l9.915-2.25 c0.802-0.184,1.602,0.321,1.784,1.124c0.182,0.803-0.321,1.602-1.124,1.784l-9.915,2.25c-0.111,0.025-0.222,0.037-0.332,0.037 C401.821,106.432,401.206,105.963,401.049,105.271z M381.219,109.771c-0.182-0.803,0.321-1.602,1.124-1.784l9.915-2.25 c0.803-0.182,1.602,0.32,1.784,1.124c0.182,0.803-0.321,1.602-1.124,1.784l-9.915,2.25c-0.111,0.025-0.222,0.037-0.332,0.037 C381.991,110.933,381.376,110.463,381.219,109.771z M367.228,106.96c0.803-0.182,1.602,0.32,1.784,1.124l0.632,2.785l2.785-0.632 c0.802-0.182,1.602,0.32,1.784,1.124c0.182,0.803-0.321,1.602-1.124,1.784l-4.239,0.962c-0.109,0.025-0.22,0.037-0.33,0.037 c-0.279,0-0.555-0.078-0.795-0.23c-0.335-0.211-0.572-0.546-0.659-0.931l-0.962-4.239 C365.922,107.941,366.425,107.142,367.228,106.96z M362.728,87.13c0.802-0.182,1.602,0.32,1.784,1.124l2.25,9.915 c0.182,0.803-0.321,1.602-1.124,1.784c-0.111,0.025-0.222,0.037-0.332,0.037c-0.681,0-1.296-0.469-1.453-1.161l-2.25-9.915 C361.421,88.111,361.925,87.313,362.728,87.13z M360.012,68.424l2.25,9.915c0.182,0.803-0.321,1.602-1.124,1.784 c-0.111,0.025-0.222,0.037-0.331,0.037c-0.681,0-1.296-0.469-1.453-1.161l-2.25-9.915c-0.182-0.803,0.321-1.602,1.124-1.784 C359.029,67.116,359.83,67.621,360.012,68.424z M353.891,54.931c-0.087-0.386-0.018-0.79,0.193-1.125 c0.211-0.334,0.546-0.572,0.931-0.659l4.239-0.962c0.803-0.182,1.602,0.32,1.784,1.124c0.182,0.803-0.321,1.602-1.124,1.784 l-2.785,0.632l0.632,2.785c0.182,0.803-0.321,1.602-1.124,1.784c-0.111,0.025-0.222,0.037-0.332,0.037 c-0.681,0-1.295-0.469-1.453-1.161L353.891,54.931z M368.045,51.719c-0.182-0.803,0.321-1.602,1.124-1.784l9.915-2.25 c0.802-0.184,1.602,0.32,1.784,1.124c0.182,0.803-0.321,1.602-1.124,1.784l-9.915,2.25c-0.111,0.025-0.222,0.037-0.331,0.037 C368.817,52.88,368.202,52.411,368.045,51.719z M387.875,47.218c-0.182-0.803,0.321-1.602,1.124-1.784l9.915-2.25 c0.802-0.183,1.602,0.321,1.784,1.124c0.182,0.803-0.321,1.602-1.124,1.784l-9.915,2.25c-0.111,0.025-0.222,0.037-0.331,0.037 C388.647,48.38,388.032,47.911,387.875,47.218z M407.705,42.718c-0.182-0.803,0.321-1.602,1.124-1.784l4.239-0.961 c0.801-0.182,1.601,0.32,1.784,1.124l0.962,4.239c0.182,0.803-0.321,1.602-1.124,1.784c-0.111,0.025-0.222,0.037-0.331,0.037 c-0.681,0-1.295-0.469-1.453-1.161l-0.632-2.785l-2.785,0.632C408.687,44.024,407.887,43.521,407.705,42.718z M420.78,73.956 c0.802-0.182,1.602,0.32,1.784,1.124l2.25,9.915c0.182,0.803-0.321,1.602-1.124,1.784c-0.111,0.025-0.222,0.037-0.332,0.037 c-0.681,0-1.296-0.469-1.453-1.161l-2.25-9.915C419.474,74.937,419.977,74.138,420.78,73.956z M416.28,54.126 c0.802-0.182,1.602,0.32,1.784,1.124l2.25,9.915c0.182,0.803-0.321,1.602-1.124,1.784c-0.111,0.025-0.222,0.037-0.332,0.037 c-0.681,0-1.296-0.469-1.453-1.161l-2.25-9.915C414.974,55.107,415.477,54.309,416.28,54.126z M274.627,168.688 c-0.182-0.803,0.321-1.602,1.124-1.784l157.986-35.853c0.802-0.182,1.602,0.32,1.784,1.124c0.182,0.803-0.321,1.602-1.124,1.784 l-157.986,35.853c-0.111,0.025-0.222,0.037-0.331,0.037C275.399,169.85,274.784,169.381,274.627,168.688z M440.119,159.171 l-157.986,35.853c-0.111,0.025-0.222,0.037-0.332,0.037c-0.681,0-1.296-0.469-1.453-1.161c-0.182-0.803,0.321-1.602,1.124-1.784 l157.986-35.853c0.802-0.182,1.602,0.32,1.784,1.124C441.425,158.19,440.922,158.988,440.119,159.171z M445.84,184.382 l-157.986,35.853c-0.111,0.025-0.222,0.037-0.331,0.037c-0.681,0-1.296-0.469-1.453-1.161c-0.182-0.803,0.321-1.602,1.124-1.784 l157.986-35.853c0.802-0.182,1.602,0.32,1.784,1.124C447.146,183.401,446.643,184.2,445.84,184.382z M452.685,207.809 c0.182,0.803-0.321,1.602-1.124,1.784l-157.986,35.853c-0.111,0.025-0.222,0.037-0.332,0.037c-0.681,0-1.296-0.469-1.453-1.161 c-0.182-0.803,0.321-1.602,1.124-1.784l157.986-35.853C451.703,206.5,452.503,207.006,452.685,207.809z M220.729,86.426 c-0.087-0.385-0.325-0.721-0.659-0.931c-0.335-0.212-0.74-0.28-1.125-0.193L40.874,125.713c-0.803,0.182-1.306,0.981-1.124,1.784 l40.127,176.82c0,0,0,0,0,0l4.5,19.829c0.157,0.692,0.772,1.161,1.453,1.161c0.109,0,0.22-0.012,0.331-0.037l71.382-16.199 c0.001,0,0.002,0,0.003,0l106.686-24.212c0.386-0.087,0.721-0.325,0.932-0.659c0.105-0.167,0.175-0.352,0.208-0.544 c0.033-0.191,0.028-0.389-0.016-0.581L220.729,86.426z M218.151,88.54l38.85,171.194l-45.209-36.343 c-3.149-2.53-6.687-3.514-9.962-2.772c-3.275,0.743-6.041,3.158-7.79,6.801l-3.084,6.428l-3.369-3.64 c-0.559-0.604-1.503-0.641-2.107-0.082c-0.604,0.56-0.641,1.503-0.081,2.107l4.17,4.505l-14.56,30.349l-4.353,9.066 c-0.004,0.009-0.006,0.018-0.01,0.027l-1.361,2.836l-36.547-29.381l1.817-5.864c0.244-0.787-0.196-1.622-0.983-1.865 c-0.786-0.244-1.622,0.196-1.865,0.983l-1.467,4.737l-5.557-4.467c-3.15-2.53-6.687-3.517-9.962-2.771 c-2.388,0.542-4.5,1.982-6.15,4.129c-0.614,0.798-1.169,1.686-1.644,2.674l-7.444,15.515c-1.609,3.353-3.217,6.707-4.825,10.061 l-12.82,26.718l-38.85-171.193L218.151,88.54z M139.758,277.079c0.233,1.268,0.474,2.579,0.466,3.31 c-0.033,3.125-1.214,5.612-3.083,6.489c-1.293,0.609-2.787,0.309-4.212-0.847c-1.421-1.144-2.514-2.945-3.672-4.853 c-0.585-0.965-1.191-1.963-1.863-2.905c-1.749-2.416-3.393-3.528-5.031-3.406c-0.857,0.066-2.072,0.521-3,2.327 c-0.844,1.666-1.074,3.71-1.297,5.686l-0.109,0.941c-0.37,2.99-0.899,6.287-2.512,7.577c-1.159,0.936-2.806,0.764-4.408-0.465 c-1.591-1.216-2.734-3.259-3.399-6.067c-0.18-0.765-0.294-1.584-0.414-2.451c-0.202-1.459-0.411-2.967-0.968-4.394 c-0.814-2.105-2.108-2.831-3.05-3.067c-0.301-0.076-0.608-0.113-0.919-0.113c-1.052,0-2.135,0.427-3.074,1.234 c-1.673,1.431-2.712,3.949-3.812,6.614c-1.112,2.694-2.372,5.747-3.989,6.283c-0.16,0.053-0.539,0.181-1.216-0.009 c3.99-8.324,7.983-16.646,11.975-24.967l7.444-15.515c1.349-2.807,3.398-4.649,5.769-5.186c2.368-0.535,5.007,0.241,7.431,2.189 l7.166,5.762c0.031,0.03,0.063,0.058,0.097,0.084l33.463,26.896c-3.826,2.49-8.985-0.194-10.605-1.164 c-1.541-0.926-3.008-2.17-4.56-3.487c-1.438-1.219-2.925-2.48-4.489-3.478c-1.419-0.914-2.612-1.064-3.545-0.438 C138.607,270.821,139.14,273.721,139.758,277.079z M192.705,237.119c0.018-0.038,0.035-0.077,0.05-0.116l3.978-8.292 c1.346-2.805,3.391-4.646,5.76-5.184c2.368-0.536,5.007,0.241,7.431,2.19c0,0,0,0,0.001,0c11.668,9.373,23.338,18.748,34.999,28.132 c-0.53,0.462-0.927,0.512-1.094,0.533c-1.692,0.202-4.151-1.999-6.32-3.952c-2.14-1.926-4.162-3.746-6.285-4.316 c-1.556-0.416-3.049-0.153-4.096,0.717c-0.746,0.621-1.599,1.832-1.424,4.082c0.119,1.523,0.581,2.967,1.027,4.363 c0.268,0.84,0.522,1.632,0.69,2.404c0.612,2.814,0.459,5.149-0.458,6.948c-0.906,1.794-2.318,2.666-3.778,2.316 c-1.999-0.467-3.899-3.214-5.522-5.751l-0.506-0.803c-1.055-1.688-2.146-3.433-3.636-4.57c-1.607-1.227-2.901-1.113-3.703-0.801 c-1.514,0.588-2.544,2.354-3.063,5.249c-0.203,1.144-0.321,2.32-0.435,3.457c-0.221,2.207-0.43,4.293-1.21,5.927 c-0.788,1.654-2.008,2.57-3.437,2.579h-0.023c-2.054,0-4.18-1.731-5.554-4.525c-0.322-0.653-0.67-1.939-1.007-3.181 c-0.893-3.296-1.664-6.142-3.733-6.443c-1.112-0.158-2.126,0.486-3.012,1.921c-0.974,1.57-1.764,3.335-2.528,5.043 c-0.837,1.871-1.629,3.638-2.631,5.151c-1.041,1.574-4.529,6.216-9.063,5.627L192.705,237.119z M192.89,297.993l-21.217-17.057 l1.121-2.336c0.715,0.171,1.434,0.266,2.152,0.266c3.874,0,7.711-2.458,10.727-7.022c1.137-1.716,2.015-3.679,2.865-5.578 c0.757-1.692,1.473-3.29,2.342-4.692c0.031-0.05,0.06-0.095,0.088-0.138c0.448,0.937,0.947,2.778,1.243,3.871 c0.391,1.443,0.76,2.806,1.21,3.718c1.879,3.823,5.03,6.191,8.23,6.19h0.041c2.596-0.017,4.824-1.576,6.11-4.279 c1.003-2.104,1.247-4.548,1.484-6.912c0.108-1.081,0.22-2.2,0.404-3.231c0.399-2.226,1.007-2.916,1.208-2.994 c0.042-0.017,0.303,0.002,0.814,0.393c1.059,0.807,2.003,2.319,2.917,3.78l0.522,0.829c2.029,3.17,4.268,6.326,7.353,7.047 c2.847,0.671,5.576-0.814,7.119-3.87c1.235-2.422,1.475-5.427,0.713-8.932c-0.199-0.91-0.486-1.808-0.763-2.677 c-0.413-1.291-0.802-2.51-0.895-3.687c-0.034-0.442-0.033-1.231,0.358-1.557c0.281-0.234,0.838-0.286,1.418-0.13 c1.43,0.384,3.276,2.045,5.061,3.652c2.773,2.496,5.64,5.078,8.688,4.693c1.127-0.142,2.15-0.687,3.058-1.612l10.802,8.684 l4.055,17.868L192.89,297.993z M88.896,291.667c1.219,0.443,2.378,0.493,3.457,0.134c2.912-0.967,4.383-4.53,5.805-7.975 c0.917-2.223,1.866-4.521,2.996-5.487c0.453-0.389,0.974-0.579,1.325-0.494c0.494,0.124,0.836,0.837,0.998,1.255 c0.431,1.105,0.607,2.377,0.794,3.725c0.124,0.897,0.253,1.824,0.465,2.727c0.827,3.497,2.338,6.105,4.488,7.749 c1.464,1.122,3.036,1.688,4.529,1.688c1.286,0,2.513-0.42,3.56-1.266c2.483-1.985,3.142-5.799,3.604-9.537l0.112-0.972 c0.193-1.714,0.392-3.487,0.99-4.664c0.295-0.576,0.525-0.706,0.57-0.709c0.211-0.054,1.059,0.343,2.383,2.172 c0.602,0.844,1.178,1.794,1.735,2.712c1.24,2.043,2.522,4.157,4.347,5.625c2.323,1.884,5.004,2.33,7.354,1.227 c2.913-1.37,4.751-4.878,4.796-9.156c0.012-1.018-0.244-2.41-0.515-3.883c-0.204-1.11-0.547-2.977-0.55-4.016 c0.043,0.026,0.089,0.054,0.137,0.085c1.4,0.893,2.746,2.034,4.17,3.242c1.575,1.336,3.204,2.718,4.955,3.77 c5.571,3.336,10.889,3.492,14.537,0.531l23.239,18.683L86.955,322.033L82.9,304.164L88.896,291.667z M164.094,138.354l3.682-11.884 c0.244-0.787,1.079-1.227,1.866-0.983c0.787,0.244,1.227,1.079,0.983,1.865l-3.682,11.884c-0.198,0.64-0.788,1.05-1.424,1.05 c-0.146,0-0.295-0.022-0.442-0.067C164.291,139.976,163.851,139.141,164.094,138.354z M110.262,227.218 c0.559,0.604,0.523,1.548-0.081,2.107l-9.131,8.451c-0.287,0.265-0.65,0.397-1.012,0.397c-0.401,0-0.801-0.161-1.095-0.478 c-0.559-0.604-0.523-1.548,0.081-2.107l9.131-8.451C108.759,226.578,109.702,226.615,110.262,227.218z M199.708,144.431 c0.559,0.604,0.523,1.548-0.081,2.107l-9.131,8.451c-0.287,0.265-0.65,0.397-1.012,0.397c-0.401,0-0.801-0.161-1.095-0.478 c-0.559-0.604-0.523-1.548,0.081-2.107l9.131-8.451C198.205,143.79,199.148,143.826,199.708,144.431z M201.233,179.283 c-0.182-0.803,0.321-1.602,1.124-1.784l12.133-2.753c0.803-0.182,1.602,0.321,1.784,1.124c0.182,0.803-0.321,1.602-1.124,1.784 l-12.133,2.753c-0.111,0.025-0.222,0.037-0.331,0.037C202.005,180.445,201.39,179.975,201.233,179.283z M83.749,170.746 c0.244-0.787,1.079-1.228,1.865-0.983l11.884,3.682c0.787,0.244,1.227,1.079,0.983,1.865c-0.198,0.64-0.788,1.05-1.424,1.05 c-0.146,0-0.295-0.022-0.442-0.067l-11.884-3.682C83.945,172.368,83.505,171.533,83.749,170.746z M102.612,142.788 c-0.559-0.604-0.523-1.548,0.081-2.107c0.604-0.56,1.548-0.523,2.107,0.082l8.451,9.131c0.559,0.604,0.523,1.548-0.081,2.107 c-0.287,0.265-0.65,0.397-1.012,0.397c-0.401,0-0.801-0.161-1.095-0.478L102.612,142.788z M133.008,125.899 c-0.182-0.803,0.321-1.602,1.124-1.784c0.803-0.183,1.602,0.321,1.784,1.124l2.753,12.133c0.182,0.803-0.321,1.602-1.124,1.784 c-0.111,0.025-0.222,0.037-0.331,0.037c-0.681,0-1.296-0.469-1.453-1.161L133.008,125.899z M165.642,256.228 c0.182,0.803-0.321,1.602-1.124,1.784c-0.111,0.025-0.222,0.037-0.331,0.037c-0.681,0-1.296-0.469-1.453-1.161l-2.753-12.133 c-0.182-0.803,0.321-1.602,1.124-1.784c0.805-0.182,1.602,0.321,1.784,1.124L165.642,256.228z M98.525,211.219 c2.439-0.553,4.517-2.023,5.85-4.14c0.025-0.04,0.044-0.082,0.069-0.122c6.752,19.109,24.946,31.732,44.877,31.731 c3.479,0,7.012-0.385,10.544-1.186c25.607-5.812,41.712-31.372,35.9-56.978c-2.815-12.403-10.293-22.971-21.054-29.751 c-10.762-6.781-23.52-8.964-35.924-6.15c-12.404,2.815-22.97,10.292-29.751,21.054c-5.478,8.695-7.952,18.693-7.217,28.755 c-0.845-0.591-1.782-1.063-2.804-1.352c-1.498-5.776-7.347-9.366-13.208-8.039c-3.32,0.753-6.116,3.022-7.57,6.06 c-1.21-0.227-2.457-0.206-3.672,0.07c-4.38,0.994-7.34,5.059-7.031,9.46c-2.169,2.261-3.076,5.469-2.375,8.557 c0.554,2.439,2.024,4.516,4.14,5.85c1.513,0.953,3.227,1.444,4.973,1.444c0.695,0,1.396-0.078,2.091-0.235L98.525,211.219z M70.888,212.517c-1.442-0.909-2.444-2.324-2.821-3.987c-0.518-2.284,0.254-4.665,2.016-6.212c0.385-0.338,0.569-0.85,0.488-1.357 c-0.506-3.151,1.538-6.174,4.654-6.88c0.444-0.101,0.895-0.151,1.345-0.151c0.695,0,1.388,0.12,2.05,0.358 c0.379,0.137,0.797,0.115,1.159-0.063c0.362-0.177,0.637-0.493,0.763-0.875c0.9-2.743,3.115-4.762,5.925-5.399 c4.37-0.991,8.73,1.757,9.722,6.126c0.037,0.163,0.067,0.325,0.093,0.488c0.103,0.63,0.596,1.124,1.225,1.23 c2.565,0.43,4.595,2.346,5.17,4.882c0.377,1.662,0.085,3.372-0.824,4.814c-0.909,1.442-2.325,2.444-3.987,2.821l-22.163,5.03 C74.04,213.719,72.33,213.426,70.888,212.517z M111.558,167.267c6.356-10.088,16.26-17.097,27.888-19.735 c3.312-0.752,6.65-1.123,9.965-1.123c8.323,0,16.495,2.342,23.709,6.887c10.088,6.356,17.097,16.261,19.735,27.888 c5.447,24.003-9.649,47.963-33.652,53.41c-24.003,5.446-47.963-9.649-53.41-33.652C103.155,189.314,105.202,177.355,111.558,167.267 z M180.517,132.805c0.985,4.34,4.856,7.292,9.13,7.292c0.684,0,1.379-0.076,2.073-0.233l22.163-5.03 c5.035-1.143,8.201-6.169,7.059-11.204c-0.701-3.088-2.904-5.59-5.836-6.693c-1.621-4.104-6.045-6.49-10.425-5.499 c-1.214,0.276-2.349,0.795-3.343,1.522c-2.623-2.114-6.124-2.953-9.444-2.199c-2.893,0.657-5.358,2.401-6.939,4.91 c-1.52,2.413-2.05,5.255-1.506,8.041C180.894,125.964,179.751,129.426,180.517,132.805z M185.982,125.51 c0.522-0.366,0.753-1.024,0.575-1.637c-0.046-0.159-0.09-0.319-0.127-0.482c-0.48-2.117-0.108-4.293,1.049-6.13 c1.157-1.836,2.959-3.112,5.076-3.592c0.609-0.138,1.22-0.206,1.825-0.206c2.187,0,4.286,0.884,5.85,2.519 c0.278,0.291,0.663,0.457,1.066,0.46c0.407-0.003,0.79-0.157,1.073-0.444c0.813-0.824,1.841-1.395,2.973-1.652 c3.116-0.706,6.264,1.138,7.168,4.198c0.145,0.492,0.533,0.874,1.026,1.013c2.257,0.635,3.982,2.449,4.5,4.733 c0.779,3.431-1.38,6.856-4.811,7.635l-22.163,5.03c-3.432,0.779-6.857-1.38-7.635-4.811 C182.85,129.609,183.854,127.005,185.982,125.51z M212.711,188.383c-5.86,1.33-9.587,7.095-8.445,12.952 c-2.556,2.251-3.7,5.713-2.933,9.092c0.985,4.34,4.855,7.292,9.13,7.292c0.684,0,1.378-0.076,2.073-0.233l22.163-5.03 c2.439-0.553,4.516-2.023,5.85-4.14c1.333-2.116,1.763-4.624,1.209-7.063c-0.701-3.089-2.904-5.591-5.836-6.694 c-1.621-4.104-6.045-6.491-10.425-5.499c-1.214,0.276-2.349,0.795-3.342,1.522C219.532,188.469,216.031,187.629,212.711,188.383z M222.111,194.064c0.408-0.026,0.79-0.157,1.073-0.444c0.814-0.824,1.842-1.395,2.973-1.652c3.116-0.707,6.264,1.137,7.168,4.198 c0.145,0.492,0.533,0.874,1.026,1.013c2.257,0.635,3.981,2.449,4.5,4.734c0.377,1.662,0.085,3.372-0.824,4.814 c-0.909,1.442-2.324,2.444-3.987,2.821l-22.163,5.03c-3.431,0.783-6.857-1.379-7.635-4.811c-0.575-2.536,0.428-5.14,2.556-6.635 c0.522-0.366,0.753-1.024,0.575-1.637c-0.046-0.159-0.09-0.319-0.127-0.482c-0.991-4.369,1.756-8.73,6.125-9.721 c0.609-0.138,1.22-0.206,1.825-0.206c2.187,0,4.287,0.885,5.85,2.519C221.324,193.895,221.708,194.061,222.111,194.064z"/></g></svg>