<?xml version="1.0" encoding="UTF-8"?><svg xmlns="http://www.w3.org/2000/svg" xmlns:xlink="http://www.w3.org/1999/xlink" height="283.8" preserveAspectRatio="xMidYMid meet" version="1.0" viewBox="-0.2 0.0 283.8 283.8" width="283.8" zoomAndPan="magnify"><g id="change1_1"><path d="M141.7,0c-2.3,0-4.6,0.1-7,0.2c-2.3,0.1-4.6,0.3-6.9,0.5c-2.3,0.2-4.6,0.5-6.9,0.9c-2.3,0.3-4.6,0.7-6.9,1.2 s-4.5,1-6.8,1.5c-2.2,0.6-4.5,1.2-6.7,1.9c-2.2,0.7-4.4,1.4-6.6,2.2s-4.3,1.6-6.5,2.5c-2.1,0.9-4.3,1.8-6.4,2.8 c-2.1,1-4.2,2-6.2,3.1c-2,1.1-4.1,2.2-6.1,3.4s-3.9,2.4-5.9,3.7c-1.9,1.3-3.8,2.6-5.7,4c-1.9,1.4-3.7,2.8-5.5,4.3s-3.5,3-5.3,4.5 s-3.4,3.2-5,4.8s-3.2,3.3-4.8,5s-3.1,3.5-4.5,5.3s-2.9,3.6-4.3,5.5c-1.4,1.9-2.7,3.8-4,5.7c-1.3,1.9-2.5,3.9-3.7,5.9s-2.3,4-3.4,6.1 c-1.1,2-2.1,4.1-3.1,6.2c-1,2.1-1.9,4.2-2.8,6.4c-0.9,2.1-1.7,4.3-2.5,6.5s-1.5,4.4-2.2,6.6c-0.7,2.2-1.3,4.5-1.9,6.7 c-0.6,2.2-1.1,4.5-1.5,6.8s-0.8,4.6-1.2,6.9c-0.3,2.3-0.6,4.6-0.9,6.9c-0.2,2.3-0.4,4.6-0.5,6.9c-0.1,2.3-0.2,4.6-0.2,7 c0,2.3,0.1,4.6,0.2,7c0.1,2.3,0.3,4.6,0.5,6.9c0.2,2.3,0.5,4.6,0.9,6.9c0.3,2.3,0.7,4.6,1.2,6.9s1,4.5,1.5,6.8 c0.6,2.2,1.2,4.5,1.9,6.7c0.7,2.2,1.4,4.4,2.2,6.6s1.6,4.3,2.5,6.5c0.9,2.1,1.8,4.3,2.8,6.4c1,2.1,2,4.2,3.1,6.2 c1.1,2,2.2,4.1,3.4,6.1s2.4,3.9,3.7,5.9c1.3,1.9,2.6,3.8,4,5.7c1.4,1.9,2.8,3.7,4.3,5.5s3,3.6,4.5,5.3s3.2,3.4,4.8,5s3.3,3.2,5,4.8 c1.7,1.6,3.5,3.1,5.3,4.5s3.6,2.9,5.5,4.3c1.9,1.4,3.8,2.7,5.7,4c1.9,1.3,3.9,2.5,5.9,3.7s4,2.3,6.1,3.4c2,1.1,4.1,2.1,6.2,3.1 s4.2,1.9,6.4,2.8c2.1,0.9,4.3,1.7,6.5,2.5s4.4,1.5,6.6,2.2c2.2,0.7,4.5,1.3,6.7,1.9c2.2,0.6,4.5,1.1,6.8,1.5s4.6,0.8,6.9,1.2 c2.3,0.3,4.6,0.6,6.9,0.9s4.6,0.4,6.9,0.5s4.6,0.2,7,0.2c2.3,0,4.6-0.1,7-0.2s4.6-0.3,6.9-0.5s4.6-0.5,6.9-0.9 c2.3-0.3,4.6-0.7,6.9-1.2s4.5-1,6.8-1.5c2.2-0.6,4.5-1.2,6.7-1.9c2.2-0.7,4.4-1.4,6.6-2.2s4.3-1.6,6.5-2.5c2.1-0.9,4.3-1.8,6.4-2.8 c2.1-1,4.2-2,6.2-3.1c2-1.1,4.1-2.2,6.1-3.4s3.9-2.4,5.9-3.7c1.9-1.3,3.8-2.6,5.7-4c1.9-1.4,3.7-2.8,5.5-4.3s3.6-3,5.3-4.5 c1.7-1.6,3.4-3.2,5-4.8s3.2-3.3,4.8-5c1.6-1.7,3.1-3.5,4.5-5.3s2.9-3.6,4.3-5.5c1.4-1.9,2.7-3.8,4-5.7c1.3-1.9,2.5-3.9,3.7-5.9 s2.3-4,3.4-6.1c1.1-2,2.1-4.1,3.1-6.2c1-2.1,1.9-4.2,2.8-6.4c0.9-2.1,1.7-4.3,2.5-6.5s1.5-4.4,2.2-6.6c0.7-2.2,1.3-4.5,1.9-6.7 c0.6-2.2,1.1-4.5,1.5-6.8s0.8-4.6,1.2-6.9c0.3-2.3,0.6-4.6,0.9-6.9s0.4-4.6,0.5-6.9s0.2-4.6,0.2-7c0-2.3-0.1-4.6-0.2-7 s-0.3-4.6-0.5-6.9s-0.5-4.6-0.9-6.9c-0.3-2.3-0.7-4.6-1.2-6.9s-1-4.5-1.5-6.8c-0.6-2.2-1.2-4.5-1.9-6.7c-0.7-2.2-1.4-4.4-2.2-6.6 s-1.6-4.3-2.5-6.5c-0.9-2.1-1.8-4.3-2.8-6.4s-2-4.2-3.1-6.2c-1.1-2-2.2-4.1-3.4-6.1s-2.4-3.9-3.7-5.9c-1.3-1.9-2.6-3.8-4-5.7 c-1.4-1.9-2.8-3.7-4.3-5.5s-3-3.5-4.5-5.3c-1.6-1.7-3.2-3.4-4.8-5s-3.3-3.2-5-4.8s-3.5-3.1-5.3-4.5s-3.6-2.9-5.5-4.3 c-1.9-1.4-3.8-2.7-5.7-4c-1.9-1.3-3.9-2.5-5.9-3.7s-4-2.3-6.1-3.4c-2-1.1-4.1-2.1-6.2-3.1c-2.1-1-4.2-1.9-6.4-2.8 c-2.1-0.9-4.3-1.7-6.5-2.5s-4.4-1.5-6.6-2.2c-2.2-0.7-4.5-1.3-6.7-1.9c-2.2-0.6-4.5-1.1-6.8-1.5s-4.6-0.8-6.9-1.2 c-2.3-0.3-4.6-0.6-6.9-0.9c-2.3-0.2-4.6-0.4-6.9-0.5C146.4,0.1,144.1,0,141.7,0z" fill="#FF3600"/></g><g id="change2_1"><path d="M257.9,143.6c-53.8,10.6-56.9,20.5-15.7,54.6c-51.8-17.1-59.3-10-41.2,38.8c-36.2-38.8-46.7-36-57.9,14.8 c-11.2-50.8-21.7-53.6-57.9-14.8c18.1-48.8,10.6-55.9-41.2-38.8c41.2-34.1,38.2-44-15.7-54.6C82.2,133,85.3,123.1,44.1,89 c51.8,17.1,59.3,10,41.2-38.8c36.2,38.8,46.7,36,57.9-14.8c11.2,50.8,21.7,53.6,57.9,14.8C182.9,99,190.4,106.1,242.2,89 C201,123.1,204.1,133,257.9,143.6" fill="#FFF"/></g><g id="change3_1"><path d="M271.1,144.1c-4.5,5.5-9,11-13.8,16.1c-2.3-0.5-4.1-1.5-5.8-2.6c2.3-7.1,5.6-15.3,9.6-21.5 C264.6,138.6,267.4,141.9,271.1,144.1z M246.4,163.8c-1.7,1.9-3.6,3.7-5.6,4.7c-0.2,5.2,12.1,8.7,12.6,1.9 C253.6,166.9,250.5,163.1,246.4,163.8z M244.7,160.5c-1.5-2.4-4.5-3.3-6.8-4.9c1.1-1.8,1-4.1,3-4.4c1.4-0.2,2.9,1.7,4.4,0.5 c-0.2-0.7,0.2-0.9,0.2-1.4c-1.6-1.6-4.6-1-4.9-3.5c-0.2-1.5,1-3.5,2.3-3.7c2.1-0.3,5.9,3.9,8.2,3.5c1.2-2.8,2.6-5.5,3.5-8.7 c-5.8-4.4-11.2-9-18.9-11.5c-1.2,2.1-3.2,5.2-4.4,7.2c-0.6,1.1-0.9,2.3-1.4,3.3c-0.8,1.4-2.1,2.2-2.3,3.3c-0.7,2.9-0.1,6.5-0.2,9.6 c-0.2,4-0.2,7.9,0,11.9c5.4,0.5,9.6,3.5,15.4,2.8C243.5,163.2,244.3,162,244.7,160.5z M225.6,126.6c-2.1-0.4-3.5-1.3-5.1-2.1 c-2.6,1.7-4.7,5.1-7.5,5.8c-2.1-2.1-1.3-7.2-2.3-10.5c-0.1,0-0.2,0-0.3,0c-0.1,0-0.2,0-0.3,0c-0.2,0-0.3-0.1-0.5-0.1 c-0.1,0-0.2,0-0.3-0.1c-0.1,0-0.1,0-0.2,0c-0.2,0-0.4-0.1-0.6-0.1c-0.1,0-0.1,0-0.2,0c-0.6-0.1-1.2-0.3-1.7-0.5 c-0.3-0.1-0.7-0.2-1-0.3c-0.5-0.2-0.9-0.3-1.4-0.5c-0.3-0.1-0.6-0.2-0.8-0.3s-0.6-0.2-0.9-0.3c-0.4-0.1-0.8-0.2-1.2-0.3 c-0.9,1.1-2.5,2-2.8,3.3c-0.4,1.8,0.4,4.1,0.2,5.6c-0.7,8.4-5.2,16.3-12.1,18.7c-0.6,1.1-1.3,2.1-1.9,3.3c2.4,1.4,5.8,1.8,8.4,3 c1.8-1.1,3.2-2.8,4.7-4.4c1.5-1.6,2.9-3.7,4.9-4c1.4,2.1,0.1,5.5,0,7.5c3.7-0.8,5.4-3.5,8.4-4.9c2.3,2.4,0.1,8.1,0.7,11.5 c0.6,0.6,1.1-0.2,1.9-0.2c2.9,2,8.3,1.6,11.9,3C225,147.2,226.2,137.1,225.6,126.6z M190.4,141.1c-3.3,2.6-9.5,5.3-15.4,4 c-3.2-0.7-10-4.1-10-8.2c0-1.7,1.8-3.9,2.3-5.8c0.6-2.2,0.9-5,0.7-7.5c-0.3-3.3-2.2-5-2.3-7.7c-0.2-6.2,6.2-10,11.7-10.8 c1.5-0.2,4.6-0.3,6.5,0.2c8.6,2.5,13.7,9.9,13.3,19.6C196.9,130.9,194.1,138.2,190.4,141.1z M184.5,123.3c-1.8-3.7-7.8-0.8-8.2,2.1 C175.7,131,186.4,130.7,184.5,123.3z M162.8,115.4c-1.5-1.8-4-3-6.3-4c-1.7-0.7-3.8-1-5.2-2.1c-0.1-0.1-0.1-0.1-0.2-0.1 c-0.5-0.4-0.8-0.9-1.1-1.5c0.4-1.2,0.7-2.6,2.3-2.6c0.4,0.3,0.8,0.6,1.2,0.9s0.8,0.6,1.2,0.8c0.3,0.2,0.5,0.4,0.8,0.5 c1.1,0.7,2.2,1.4,3.4,2c1,0.1,0.3,1.9,1.6,1.6c1.2-2.7,3.9-5.3,3.5-8.4c-0.2-2.2-4.5-5.7-8.2-7.3c-2.8-1.2-6.5-1.6-10-1.3 c-0.1,0-0.3,0-0.4,0c-0.1,0-0.3,0-0.4,0.1c-0.1,0-0.3,0-0.4,0.1s-0.3,0-0.4,0.1c-0.6,0.1-1.2,0.2-1.7,0.4c-0.3,0.1-0.5,0.1-0.8,0.2 c-0.1,0-0.2,0.1-0.4,0.1c-0.2,0.1-0.4,0.1-0.5,0.2c-0.1,0-0.2,0.1-0.4,0.1c-0.1,0-0.1,0-0.2,0.1c-0.1,0-0.2,0.1-0.3,0.1 c-0.1,0-0.2,0.1-0.3,0.1c-0.2,0.1-0.4,0.2-0.6,0.3c-0.1,0.1-0.2,0.1-0.3,0.2c-0.3,0.1-0.5,0.3-0.7,0.5c-0.1,0.1-0.3,0.2-0.4,0.3 c-0.3,0.2-0.5,0.4-0.8,0.6c-2.9,2.7-5.5,10.1-2.8,14.3c2.6,4.1,8.6,0.8,13.8,3.5c1.4,0.7,3.5,3.5,2.8,5.6c-0.5,1.4-3,2.6-4.7,2.6 c-2.6,0-4.8-2.5-7.7-1.2c-3.5,4.4-6.5,9.4-6.1,17.8c1.8,0.7,1.8,2,2.8,2.8c3.3,2.7,9.2,3.9,13.3,3.7c4.4-0.1,9.3-3.2,12.1-6.1 C166.1,134.5,169,122.8,162.8,115.4z M123.4,130.3c0.2-1.6-0.5-4,0.5-4.9c1.2-0.4,2.9,0.2,4.7,0c0.5-1.7,0.9-3.5,0.9-5.6 c-1.9-0.9-5.1-0.5-6.8-1.6c-0.1-2.6,0.9-4.3,1.2-6.6c1.4-0.8,4-0.3,5.4-1.2c0.4-1.8-0.2-3.6-0.5-5.4c-0.3-1.8,0-4.1-1.2-5.4 c-5.3,1.2-11.4,1.5-15.4,4c-0.4,11.5-0.3,27.5,1.9,40c5.1,0.7,11.1,0.7,15.6,0.7c0.9-3.6,0.2-10,0.7-13.3 C127.2,131.2,125.3,130.8,123.4,130.3z M104.4,106.4c-0.6,0.1-1.1,0.1-1.7,0.2c-0.2,0-0.5,0-0.7,0.1c-0.5,0-0.9,0.1-1.4,0.1 c-0.2,0-0.3,0-0.4,0c-2.2,0.1-4.3,0-7.1-0.1c-0.2,1.9-1.1,4.2-1.4,6.3c-0.2,1.3,0.3,3.4-1.4,3.5c-1.7-1.3-1.9-4-3.5-5.4 c-1.5,0.8-3.7,0.8-5.4,1.4c-0.5,2.2-0.3,4.3-0.9,6.1c-2.2-0.3-3.1-2.6-4.2-4c-1.3-1.5-2.4-3-4-4.2c-4.2,0.7-6.6,3.2-10.7,4 c-0.5,1.3,0.6,2.1,0.5,3.7c5.2,10.5,11.5,19.8,16.3,30.6c3.8-0.8,7.3-1.9,11.2-2.6c0.4-3.6-2-7.6-0.2-10.3c3.4,1.9,5.6,5,7.9,7.9 c4,0.5,8.3-0.6,10.5-1.2c-0.3-11.4-1.4-24.3-2.1-36.5C105.2,106.3,104.8,106.4,104.4,106.4z M76,150c-3.9,2.3-11.8,5-15.9,7.7 c-1,0.7-2.9,2.6-3.7,2.6c-1.5,0-3-2.3-4-3.3c-1.3-1.3-2.4-2.3-4-3c-1.3,1.8-1,6.1-0.7,8.7c-6.4,1.9-11.8,5.3-17.7,6.3 c-2.9-13.8-5.3-26.7-8.4-40.2c8.4-2.9,17.1-7.6,25.2-10.3c1-0.3,5.8,5.7,6.5,6.5c1.9,2.3,3.9,4.8,5.8,6.8c1.1,1.1,2.5,1.8,3.7,3 c1.2,1.2,1.9,2.8,2.8,4C68.8,142.5,73.9,145.7,76,150z M47.1,140.9c-0.7-0.9-1.4-1.9-2.3-2.7c-0.1-0.1-0.1-0.1-0.2-0.2 c-0.1-0.1-0.2-0.2-0.2-0.2c-0.1-0.1-0.2-0.1-0.3-0.2s-0.2-0.1-0.3-0.2s-0.2-0.1-0.3-0.2c0,0-0.1,0-0.1-0.1c-0.2-0.1-0.4-0.3-0.7-0.4 c-0.1-0.1-0.2-0.1-0.3-0.2c-0.1,0-0.1-0.1-0.2-0.1s-0.1-0.1-0.2-0.1c0,0-0.1,0-0.1,0c-0.1,0-0.2-0.1-0.2-0.1 c-1.4,1.2-1.2,4.9-1.2,6.8C42.7,143.9,45.8,142.3,47.1,140.9z" fill="#FDFB5F"/></g><g id="change4_1"><path d="M270.2,140.6c-1.6-1.3-4.8-4.2-5.8-5.1c-0.8-0.8-1.8-3-3.5-2.8c-1.2,0.2-1.9,2.9-3.3,3c-1.3,0.2-3.9-2.2-5.4-3.3 c-2-1.4-3.7-2.6-5.1-3.5c-2.3-1.5-8.8-6.1-11.7-5.6c-2.5,0.4-4.5,5-7,4.7c0-1,0.1-2.1-0.2-2.8c-1.1-0.9-2.5-1-4-1.6 c-1.4-0.6-2.7-1.8-4-1.9c-2,0-3.1,1.4-4.6,2.4c-0.2-1.2-0.1-2.6,0.3-3.8c0.2-0.9,0.6-1.7,1-2.5c0.4-0.8,0.9-1.7,1.4-2.5 c2.1-3.2,4.7-6.1,7.5-8.9c2.8-2.8,5.7-5.5,8.7-8.1c3-2.6,6.1-5.1,9.2-7.6l8.7-7.1l-10.8,3.4c-7.5,2.4-15,4.6-22.6,6.2 c-3.8,0.8-7.6,1.4-11.3,1.6c-1.8,0.1-3.7,0-5.4-0.2c-0.8-0.1-1.6-0.3-2.4-0.6c-0.7-0.3-1.4-0.6-1.9-1c-1.1-0.8-1.9-1.9-2.3-3.4 c-0.2-0.7-0.4-1.5-0.5-2.4c-0.1-0.8-0.1-1.7-0.1-2.6c0-1.8,0.2-3.6,0.5-5.5c0.3-1.8,0.7-3.7,1.2-5.6c0.5-1.9,1-3.7,1.6-5.6 c0.6-1.9,1.2-3.7,1.8-5.6c1.2-3.7,2.6-7.4,4-11l5.6-14.8L198.7,48c-2.7,2.9-5.4,5.7-8.2,8.4s-5.6,5.4-8.6,7.9 c-2.9,2.5-6,4.8-9.1,6.5c-1.6,0.9-3.2,1.6-4.7,2c-0.8,0.2-1.5,0.3-2.2,0.4c-0.7,0-1.4,0-2-0.2s-1.2-0.4-1.8-0.7 c-0.6-0.3-1.2-0.8-1.7-1.3c-1.1-1-2.1-2.4-3.1-3.9c-1.8-3-3.3-6.5-4.5-10.1c-1.3-3.6-2.3-7.3-3.3-11.1c-1-3.8-1.9-7.6-2.7-11.4 l-3.5-16.2l-3.7,16.2c-1.7,7.6-3.6,15.3-6.1,22.5c-1.3,3.6-2.7,7.1-4.6,10.1c-0.9,1.5-1.9,2.8-3.1,3.8c-0.6,0.5-1.1,0.9-1.7,1.2 c-0.6,0.3-1.2,0.5-1.8,0.7c-0.6,0.1-1.3,0.2-2,0.1c-0.7,0-1.4-0.2-2.2-0.4c-1.5-0.4-3.1-1.1-4.6-2c-3.1-1.7-6.1-4.1-9.1-6.5 c-2.9-2.5-5.8-5.1-8.5-7.9c-2.8-2.7-5.5-5.6-8.2-8.4L75.8,35l6.1,16.4c1.4,3.7,2.7,7.3,3.9,11c1.2,3.7,2.4,7.4,3.3,11.1 c0.5,1.9,0.8,3.7,1.1,5.5c0.3,1.8,0.5,3.7,0.5,5.4c0,0.9,0,1.7-0.1,2.5c-0.1,0.8-0.3,1.6-0.5,2.2c-0.5,1.4-1.2,2.4-2.2,3.1 c-0.5,0.4-1.1,0.7-1.8,1c-0.7,0.3-1.5,0.4-2.3,0.6c-1.6,0.3-3.4,0.3-5.2,0.2c-3.7-0.2-7.4-0.8-11.2-1.7c-7.5-1.7-15-3.9-22.5-6.3 l-15-4.8l12.2,10c3.1,2.5,6.1,5.1,9.1,7.7c3,2.6,5.9,5.3,8.6,8.1c1.3,1.4,2.6,2.8,3.8,4.2c-2.2,0.7-4.9,1.7-5.2,3.2 c-0.3,1.6,1.5,4.1,2.1,5.4c0.9,2,1.6,3.4,2.3,5.1c-2.3-1.7-4.7-2.8-7.9-4.9c-2.2-1.5-5.3-4.6-7.2-4.7c-1.3,0-5,2.1-6.5,2.8 c-6.9,3.3-14.1,5.3-20.5,8.2c-1.9,2.3-0.9,4.4-0.2,7.7c0.6,3,1.3,5.9,1.9,8.9l-3.7,0.8l4,0.7c1.9,9.1,3.6,18.1,5.3,26.6 c9.1,5.3,22.2,6.6,34.1,9.1c-0.3,0.4-0.7,0.8-1,1.1c-2.7,2.9-5.6,5.6-8.6,8.3c-3,2.7-6,5.2-9.1,7.8l-4.3,3.6l5.4-1.8 c7.5-2.5,15-4.9,22.7-6.6c3.8-0.8,7.7-1.5,11.5-1.7c1.9-0.1,3.8-0.1,5.7,0.2c1.8,0.3,3.6,0.9,5,1.9c1.4,1,2.4,2.5,3,4.2 c0.3,0.9,0.4,1.8,0.6,2.7c0.1,0.9,0.1,1.9,0.1,2.8c0,1.9-0.2,3.8-0.6,5.7c-0.3,1.9-0.7,3.8-1.2,5.7c-1.9,7.6-4.6,15-7.4,22.3 l-2.8,7.3l5.4-5.6c5.5-5.7,11-11.3,17-16.3c3-2.5,6.1-4.8,9.4-6.6c1.6-0.9,3.3-1.6,5-2.1c0.8-0.2,1.7-0.4,2.5-0.4 c0.8,0,1.6,0,2.3,0.2c0.8,0.2,1.5,0.4,2.1,0.8c0.7,0.4,1.3,0.9,1.9,1.4c1.2,1.1,2.3,2.6,3.2,4.1c1.9,3.2,3.3,6.7,4.5,10.4 c2.5,7.3,4.2,15,5.8,22.7l2.7,12.6l2.9-12.6c0.9-3.8,1.8-7.7,2.8-11.4c1-3.8,2.1-7.5,3.4-11.1c1.3-3.6,2.8-7.1,4.7-10.2 c1-1.5,2-2.9,3.2-3.9c0.6-0.5,1.2-1,1.8-1.3c0.6-0.3,1.3-0.6,1.9-0.7c0.7-0.1,1.4-0.2,2.1-0.1c0.7,0,1.5,0.2,2.3,0.4 c1.6,0.4,3.2,1.2,4.8,2.1c3.2,1.8,6.2,4.1,9.1,6.6c2.9,2.5,5.8,5.2,8.6,7.9c2.8,2.8,5.5,5.6,8.2,8.5l10.2,10.8l-5.2-13.9 c-1.4-3.7-2.7-7.4-3.9-11.1c-0.6-1.9-1.2-3.7-1.8-5.6c-0.6-1.9-1.1-3.7-1.5-5.6c-0.5-1.9-0.9-3.7-1.2-5.6c-0.3-1.9-0.5-3.7-0.5-5.5 c0-0.9,0-1.8,0.1-2.6c0.1-0.8,0.3-1.6,0.5-2.4c0.5-1.5,1.2-2.6,2.4-3.4c0.6-0.4,1.2-0.8,2-1c0.7-0.3,1.5-0.5,2.4-0.6 c1.7-0.3,3.5-0.3,5.4-0.2c3.7,0.2,7.5,0.8,11.3,1.6c7.6,1.6,15.1,3.9,22.6,6.2l11,3.5l-8.9-7.3c-3.1-2.5-6.2-5-9.2-7.6 c-1.3-1.1-2.6-2.3-3.9-3.5c1.7-0.7,2.2-3.6,3.2-5.5c1.1,0.4,2.5,0.6,3.3,1.4c0,5.2,7,7,9.8,3.7c1-1.1,0.6-2.7,1.4-4.2 c2.1-4.2,10.1-7.5,7-14.3c1-1.1,2-2.2,3.3-3c2.9-4.1,6-8.2,9.6-12.2c1.7-1.9,5.6-4.8,5.8-6.5C274.3,142.1,271.8,141.9,270.2,140.6z M231.9,129.4c-1.1,1.8-2,3.8-3.1,5.6c0,0,0,0,0,0C229.9,133.2,230.8,131.2,231.9,129.4z M217.8,126.7c0,0,0.1-0.1,0.1-0.1 c0.2-0.2,0.5-0.5,0.7-0.7c0,0,0.1-0.1,0.1-0.1c0.2-0.2,0.5-0.4,0.8-0.7c0,0,0.1,0,0.1-0.1c0.3-0.2,0.5-0.4,0.8-0.6 c1.7,0.8,3.1,1.8,5.1,2.1c0.1,1.2,0.1,2.4,0.1,3.6c0.1,4.9-0.1,9.8-0.2,14.9c0,0.6,0,1.3,0,1.9c0,0.4,0,0.8,0,1.1c0,1,0,2,0,3 c0,0.9,0,1.7,0,2.6c0,0.7,0,1.5,0,2.2c0,1.2,0.1,2.4,0.1,3.6c-0.5-0.2-1-0.4-1.6-0.5c0,0-0.1,0-0.1,0c-0.5-0.1-1-0.2-1.6-0.3 c-0.1,0-0.1,0-0.2,0c-0.6-0.1-1.1-0.2-1.7-0.3c-0.6-0.1-1.2-0.2-1.8-0.3c0,0,0,0,0,0c0,0,0,0,0,0c-1.1-0.2-2.2-0.4-3.1-0.7 c0,0,0,0,0,0c0,0,0,0,0,0c-0.3-0.1-0.6-0.2-0.8-0.3c-0.1,0-0.1-0.1-0.2-0.1c-0.3-0.1-0.5-0.3-0.8-0.4c-0.1,0-0.2,0-0.3,0 c-0.4,0.1-0.8,0.4-1.1,0.4c-0.2,0-0.3-0.1-0.5-0.2c-0.5-3.2,1.3-8.3-0.3-11c-0.1-0.2-0.2-0.3-0.4-0.5c-0.4,0.2-0.7,0.4-1.1,0.6 c-2.4,1.5-4.1,3.7-7.3,4.3c0,0,0,0,0,0c0,0,0,0,0,0c0.1-2,1.4-5.4,0-7.5c-1.8,0.3-3.1,1.9-4.4,3.4c-0.2,0.2-0.4,0.4-0.5,0.6 c-0.7,0.8-1.5,1.6-2.2,2.4c-0.8,0.8-1.6,1.5-2.4,2c-1.6-0.8-3.6-1.2-5.4-1.8c-1.1-0.3-2.1-0.7-3-1.3c0.5-1.2,1.2-2.2,1.9-3.3 c6.9-2.4,11.4-10.3,12.1-18.7c0.1-1.6-0.6-3.8-0.2-5.6c0-0.2,0.1-0.3,0.2-0.5c0.5-1.1,1.9-1.9,2.6-2.8c0.4,0.1,0.8,0.2,1.2,0.3 c0.3,0.1,0.6,0.2,0.9,0.3s0.6,0.2,0.8,0.3c0.5,0.2,0.9,0.3,1.4,0.5c0.3,0.1,0.6,0.2,1,0.3c0.6,0.2,1.1,0.3,1.7,0.5 c0.1,0,0.1,0,0.2,0c0.2,0,0.4,0.1,0.6,0.1c0.1,0,0.1,0,0.2,0c0.1,0,0.2,0,0.3,0.1c0.2,0,0.3,0.1,0.5,0.1c0.1,0,0.2,0,0.3,0 s0.2,0,0.3,0c1,3.3,0.2,8.4,2.3,10.5c0.3-0.1,0.6-0.2,0.8-0.3c0.1,0,0.1-0.1,0.2-0.1c0.1,0,0.2-0.1,0.2-0.1c0.1-0.1,0.2-0.1,0.3-0.2 c0.1,0,0.1-0.1,0.2-0.1c0.1-0.1,0.2-0.2,0.3-0.2C216,128.5,216.9,127.6,217.8,126.7z M223.5,162.8c-1,1.6-2.1,3.2-3.7,5.1 C221.4,166.1,222.5,164.4,223.5,162.8z M211.6,159.1c-4.3,3.6-7.4,8.4-11.4,12.2C204.2,167.5,207.3,162.7,211.6,159.1 C211.6,159.1,211.6,159.1,211.6,159.1z M198.3,166.1c-1.3,0-1.7,0.8-2.6,1.1C196.6,166.9,197,166.1,198.3,166.1 C198.3,166.1,198.3,166.1,198.3,166.1z M182.4,148.8c2.4,2.5,7.4,2.6,10.5,4.4C189.8,151.4,184.9,151.3,182.4,148.8z M189,163.3 c-0.8,1.9-1.6,4.6-3.7,4.9C187.4,167.9,188.2,165.2,189,163.3z M181,157.2c0.3,0.1,0.5,0.2,0.7,0.2 C181.5,157.4,181.3,157.4,181,157.2c-0.1-0.9,0.4-1.5,1-1.5C181.5,155.8,180.9,156.3,181,157.2z M175,145.1c-3.2-0.7-10-4.1-10-8.2 c0-1.7,1.8-3.9,2.3-5.8c0.6-2.2,0.9-5,0.7-7.5c-0.3-3.3-2.2-5-2.3-7.7c-0.2-5.4,4.7-9,9.6-10.3c0.7-0.2,1.4-0.3,2.1-0.4 c1.5-0.2,4.6-0.3,6.5,0.2c8.6,2.5,13.7,9.9,13.3,19.6c-0.2,5.9-3.1,13.2-6.8,16.1C187.1,143.7,180.8,146.4,175,145.1z M134.8,142.7 c-1-0.8-1-2.1-2.8-2.8c-0.5-8.4,2.6-13.3,6.1-17.8c2.9-1.4,5.1,1.2,7.7,1.2c1.7,0,4.2-1.2,4.7-2.6c0.7-2.1-1.4-4.9-2.8-5.6 c-5.1-2.7-11.1,0.6-13.8-3.5c-2.7-4.2-0.1-11.6,2.8-14.3c0.2-0.2,0.5-0.4,0.8-0.6c0.1-0.1,0.3-0.2,0.4-0.3c0.2-0.2,0.5-0.3,0.7-0.5 c0.1-0.1,0.2-0.1,0.3-0.2c0.2-0.1,0.4-0.2,0.6-0.3c0.1-0.1,0.2-0.1,0.3-0.1s0.2-0.1,0.3-0.1c0.1,0,0.1,0,0.2-0.1 c0.1,0,0.2-0.1,0.4-0.1c0.2-0.1,0.4-0.1,0.5-0.2c0.1,0,0.2-0.1,0.4-0.1c0.2-0.1,0.5-0.1,0.8-0.2c0.6-0.1,1.1-0.3,1.7-0.4 c0.1,0,0.3,0,0.4-0.1s0.3,0,0.4-0.1c0.1,0,0.3,0,0.4-0.1c0.1,0,0.3,0,0.4,0c0.9-0.1,1.8-0.1,2.6-0.1c2.7,0,5.3,0.5,7.4,1.4 c3.7,1.5,7.9,5.1,8.2,7.3c0.4,3.1-2.3,5.7-3.5,8.4c-1.4,0.3-0.7-1.5-1.6-1.6c-1.2-0.6-2.3-1.3-3.4-2c-0.3-0.2-0.5-0.4-0.8-0.5 c-0.4-0.3-0.8-0.6-1.2-0.8c-0.4-0.3-0.8-0.6-1.2-0.9c-1.6,0-1.9,1.4-2.3,2.6c0.3,0.6,0.7,1.1,1.1,1.5c0.1,0.1,0.1,0.1,0.2,0.1 c1.5,1.1,3.6,1.4,5.2,2.1c0.3,0.1,0.6,0.2,0.9,0.4c2,0.9,4.1,2,5.4,3.6c5,6.1,4,14.9,0.4,21.2c-0.8,1.4-1.8,2.8-2.9,3.9 c-2.9,2.9-7.8,5.9-12.1,6.1c-0.3,0-0.5,0-0.8,0C143.3,146.4,137.9,145.3,134.8,142.7z M147,158.2c-1.1,0-2.1-0.5-3.2-0.9 C144.8,157.7,145.8,158.2,147,158.2z M131.6,128.9c0.5-0.5,0.9-1.2,1.2-2C132.4,127.7,132,128.4,131.6,128.9z M135.4,121.4 C135.4,121.4,135.4,121.4,135.4,121.4c0.1-0.1,0.1-0.2,0.2-0.2C135.5,121.3,135.5,121.3,135.4,121.4 C135.4,121.4,135.4,121.4,135.4,121.4z M56.8,96.1c3.1,0.9,6.2,1.7,9.4,2.5c4,0.9,8,1.7,12.2,1.9c2.1,0.1,4.3,0.1,6.6-0.2 c1.1-0.2,2.3-0.4,3.5-0.8c1.2-0.4,2.3-1,3.4-1.8c1.1-0.8,2.1-1.8,2.9-2.9c0.8-1.1,1.4-2.3,1.8-3.5s0.6-2.4,0.8-3.5 c0.1-1.2,0.2-2.3,0.2-3.4c0-2.2-0.2-4.3-0.5-6.4c-0.3-2.1-0.7-4.1-1.2-6.1c-0.6-2.8-1.4-5.5-2.2-8.1c2,2,4.1,3.9,6.3,5.8 c3.1,2.7,6.4,5.2,10.2,7.4c1.9,1.1,3.9,2.1,6.3,2.7c1.2,0.3,2.4,0.6,3.7,0.7c1.3,0.1,2.6,0,4-0.3s2.6-0.8,3.8-1.4 c1.2-0.6,2.2-1.4,3.1-2.2c1.9-1.7,3.2-3.5,4.4-5.4c2.3-3.8,3.9-7.7,5.3-11.5c1-2.9,1.9-5.8,2.7-8.8c0.8,2.9,1.7,5.8,2.7,8.7 c0.7,1.9,1.4,3.9,2.3,5.8c0.9,1.9,1.8,3.8,3,5.7c1.2,1.9,2.6,3.7,4.4,5.4c0.9,0.8,1.9,1.6,3.1,2.2c1.2,0.6,2.4,1.1,3.7,1.3 c1.3,0.3,2.6,0.3,3.9,0.3c1.3-0.1,2.5-0.3,3.6-0.7c2.3-0.7,4.3-1.6,6.2-2.7c3.8-2.2,7-4.8,10.1-7.4c2.5-2.2,4.9-4.4,7.2-6.7 c-0.9,3.1-1.8,6.2-2.5,9.4c-0.5,2-0.8,4-1.1,6.1c-0.3,2.1-0.5,4.2-0.5,6.3c0,1.1,0.1,2.2,0.2,3.3c0.2,1.1,0.4,2.3,0.8,3.4 c0.4,1.1,1,2.3,1.7,3.3c0.7,1,1.7,2,2.7,2.7c1,0.7,2.2,1.3,3.3,1.7c1.1,0.4,2.3,0.6,3.4,0.8c2.2,0.3,4.4,0.3,6.5,0.2 c2.1-0.1,4.1-0.4,6.1-0.8c2-0.3,4-0.8,6-1.2c4.4-1.1,8.7-2.3,12.9-3.6c-0.4,0.3-0.8,0.7-1.1,1c-3,2.7-5.9,5.6-8.7,8.5 c-2.8,3-5.4,6.1-7.6,9.7c-0.5,0.9-1,1.8-1.5,2.8c-0.3,0.8-0.6,1.6-0.9,2.4c-0.1-0.5-0.3-1-0.7-1.4c-5.4,0.3-10-5.2-14.2-1.9 c-2.5-7.4-10.9-14.4-21-13.3c-4.4,0.4-6.9,3-10.7,4.4c1.3-3.8-0.4-6.2-2.3-8.4c-2.8-3.4-8.5-6.4-13.5-6.8c-10-0.7-16,2.8-18.9,8.7 c-0.7-4.8-5.1-2.9-10.5-1.9c-6.3,1.2-12.4,1.6-12.1,8.4c-0.9-0.7-1-2.3-2.1-2.8c-4.9,0.5-10.6,1.1-15.9,0.5c-2.1,1.2-0.4,4.8-1.6,7 c-1.1-5.1-6-0.8-10-0.9c-0.9,0.4-0.5,1.8-0.7,2.3c-1.2-0.8-2.5-2.9-4-4c-0.4-0.3-1.7-0.9-2.1-0.9c-1.2-0.1-2.6,0.4-3.9,1.1 c-1.6-2-3.2-3.9-4.9-5.8C61.6,100.7,59.2,98.4,56.8,96.1z M129.7,144.4c-4.5,0-10.5,0-15.6-0.7c-2.2-12.5-2.3-28.5-1.9-40 c4-2.5,10.1-2.8,15.4-4c1.2,1.3,0.9,3.6,1.2,5.4c0.3,1.8,0.9,3.6,0.5,5.4c-1.4,0.8-3.9,0.4-5.4,1.2c-0.3,2.3-1.2,3.9-1.2,6.6 c0.2,0.1,0.4,0.3,0.7,0.4c1.8,0.7,4.4,0.5,6.1,1.3c0,2.1-0.4,3.9-0.9,5.6c-1.8,0.2-3.4-0.4-4.7,0c-0.9,0.9-0.3,3.3-0.5,4.9 c1.9,0.5,3.8,0.9,7,0.7C129.9,134.3,130.6,140.7,129.7,144.4z M62,118.2c0.1-1.6-0.9-2.4-0.5-3.7c0.5-0.1,0.9-0.2,1.3-0.3 c0.1,0,0.3-0.1,0.4-0.1c0.3-0.1,0.5-0.2,0.8-0.3c0.4-0.1,0.7-0.3,1.1-0.5c1.9-0.9,3.7-1.9,6-2.5c0.4-0.1,0.8-0.2,1.2-0.3 c1.5,1.2,2.7,2.7,4,4.2c1.1,1.4,2,3.7,4.2,4c0.6-1.8,0.4-3.9,0.9-6.1c1.6-0.6,3.9-0.6,5.4-1.4c1.6,1.4,1.8,4.1,3.5,5.4 c1.7-0.1,1.2-2.3,1.4-3.5c0.3-2.2,1.2-4.4,1.4-6.3c2.8,0.1,4.9,0.1,7.1,0.1c0.1,0,0.3,0,0.4,0c0.4,0,0.9,0,1.4-0.1 c0.2,0,0.5,0,0.7-0.1c0.5-0.1,1.1-0.1,1.7-0.2c0.4-0.1,0.8-0.1,1.3-0.2c0.7,12.1,1.8,25.1,2.1,36.5c-2.2,0.6-6.5,1.7-10.5,1.2 c-2.3-3-4.5-6.1-7.9-7.9c-1.8,2.7,0.7,6.7,0.2,10.3c-3.9,0.7-7.4,1.8-11.2,2.6c-0.6-1.4-1.3-2.8-2-4.1c-0.2-0.5-0.5-0.9-0.7-1.4 c-0.5-0.9-0.9-1.8-1.4-2.7c-0.3-0.5-0.6-1.1-0.9-1.6c-0.4-0.8-0.9-1.6-1.3-2.4c-0.3-0.6-0.6-1.2-1-1.7c-0.5-0.9-1-1.7-1.4-2.6 c-0.8-1.5-1.7-2.9-2.5-4.4l0,0c0,0,0,0,0,0c-0.8-1.4-1.5-2.7-2.3-4.1c-0.2-0.3-0.4-0.7-0.5-1C63.6,121.3,62.8,119.7,62,118.2z M99,159.2c-1.2-1.1-2.2-3.1-4.4-1.5c-0.5,1.1-0.5,2.7-0.8,4.1c0.3-1.4,0.2-3,0.8-4.1C96.8,156.2,97.9,158.1,99,159.2z M91.4,147.4 c-0.1-3-1-5.4-1.2-8.4C90.5,142,91.3,144.4,91.4,147.4z M55.5,169.4C56.1,165.8,58.5,170.2,55.5,169.4L55.5,169.4z M60.1,157.7 c-0.9,0.6-2.4,2.1-3.4,2.5c-0.1,0.1-0.3,0.1-0.4,0.1c-1.5,0-3-2.3-4-3.3c-1.3-1.3-2.4-2.3-4-3c-1.3,1.8-1,6.1-0.7,8.7 c-6.4,1.9-11.8,5.3-17.7,6.3c-0.4-1.9-0.8-3.8-1.2-5.7c-0.2-1.1-0.5-2.3-0.7-3.4c-0.1-0.6-0.2-1.1-0.3-1.7 c-0.9-4.4-1.8-8.8-2.7-13.2l0,0c-0.2-0.8-0.3-1.6-0.5-2.5h0c-0.4-2-0.8-4-1.3-6.1c-0.1-0.4-0.2-0.8-0.3-1.3 c-0.5-2.1-0.9-4.3-1.4-6.4c8.4-2.9,17.1-7.6,25.2-10.3c1-0.3,5.8,5.7,6.5,6.5c1.9,2.3,3.9,4.8,5.8,6.8c0.3,0.3,0.6,0.5,0.9,0.8 c0.9,0.7,2,1.4,2.8,2.3c0.9,0.9,1.5,2,2.1,3c0,0,0,0,0,0c0.2,0.3,0.4,0.7,0.7,0.9c1.1,1.3,2.4,2.6,3.8,3.9c2.5,2.3,5.1,4.6,6.5,7.4 c-0.3,0.2-0.5,0.3-0.8,0.5c-0.1,0.1-0.2,0.1-0.3,0.2c-0.2,0.1-0.4,0.2-0.6,0.3c-0.1,0.1-0.3,0.1-0.4,0.2c-0.2,0.1-0.4,0.2-0.6,0.3 c-0.2,0.1-0.3,0.1-0.5,0.2c-0.2,0.1-0.4,0.2-0.6,0.3c-0.2,0.1-0.3,0.2-0.5,0.2c-0.2,0.1-0.4,0.2-0.6,0.3c-0.2,0.1-0.4,0.2-0.6,0.3 c-0.1,0.1-0.3,0.1-0.4,0.2c-1,0.4-2,0.9-3,1.3c0,0,0,0,0,0c-1.1,0.5-2.1,1-3.1,1.4c0,0,0,0,0,0C62.5,156.3,61.2,157,60.1,157.7z M231.7,191.9c0.3,0.3,0.7,0.6,1,0.9c-4.2-1.3-8.4-2.5-12.7-3.5c-2-0.5-3.9-0.9-6-1.2c-2-0.3-4.1-0.6-6.1-0.8 c-2.1-0.1-4.2-0.1-6.5,0.2c-1.1,0.2-2.2,0.4-3.4,0.8c-1.1,0.4-2.2,0.9-3.3,1.7c-1,0.7-2,1.7-2.7,2.7c-0.7,1-1.3,2.2-1.7,3.3 c-0.4,1.1-0.6,2.3-0.8,3.4c-0.1,1.1-0.2,2.2-0.2,3.3c0,2.2,0.2,4.3,0.5,6.3c0.3,2.1,0.7,4.1,1.2,6c0.8,3.4,1.8,6.8,2.8,10.1 c-2.5-2.5-5-4.9-7.7-7.2c-3.1-2.7-6.3-5.2-10.1-7.3c-1.9-1.1-3.9-2-6.1-2.6c-1.1-0.3-2.3-0.5-3.6-0.6c-1.2-0.1-2.5,0-3.8,0.3 s-2.5,0.7-3.6,1.3c-1.1,0.6-2.1,1.3-3,2.1c-1.8,1.6-3.1,3.4-4.3,5.3c-1.1,1.9-2.1,3.8-2.9,5.7c-0.8,1.9-1.6,3.8-2.2,5.8 c-1.3,3.9-2.4,7.8-3.4,11.6c0,0,0,0,0,0c-1.1-3.9-2.2-7.7-3.6-11.5c-1.4-3.8-3-7.6-5.3-11.2c-1.2-1.8-2.5-3.6-4.2-5.1 c-0.9-0.8-1.8-1.4-2.9-2c-1.1-0.6-2.2-1-3.4-1.2c-1.2-0.2-2.4-0.3-3.6-0.2c-1.2,0.1-2.3,0.3-3.4,0.6c-2.1,0.6-4.1,1.6-5.9,2.6 c-3.6,2.1-6.8,4.7-9.8,7.3c-3,2.7-5.9,5.5-8.7,8.3c-1.1,1.1-2.1,2.2-3.1,3.3c0.5-1.4,0.9-2.8,1.4-4.2c0.6-1.9,1.2-3.8,1.7-5.7 c0.5-1.9,1.1-3.9,1.5-5.8c0.4-1.9,0.8-3.9,1.1-5.9c0.3-2,0.5-4,0.5-6.1c0-2.1-0.2-4.2-0.9-6.2c-0.7-2-2-4-3.8-5.3 c-0.9-0.6-1.9-1.1-2.9-1.5c-1-0.4-2-0.6-3.1-0.8c-2.1-0.3-4.1-0.3-6.1-0.2c-4.1,0.2-8,1-11.9,1.8c-3.9,0.9-7.7,1.9-11.5,3 c-2,0.6-4.1,1.2-6.1,1.9c1.7-1.4,3.3-2.8,5-4.3c3-2.7,6-5.4,8.8-8.3c0.7-0.7,1.4-1.4,2.1-2.2c0.2,0.1,0.5,0.1,0.7,0.2 c1.5-2,3.3-3.5,5.1-5.1c0-0.3-0.3-1-0.6-1.8c0.1-0.2,0.3-0.4,0.4-0.6c0.2-0.3,0.3-0.6,0.5-0.9c1.1,0.5,1.8,1.1,3.1,0.9 c1.4-0.3,2.7-2.5,4.7-3.3c1.3-0.5,2.2,0,3-1.2c0.2-1.6-0.3-3.7,0-4.7c2.9,4.3,9.3,0.8,14,0.2c0.7-1,0.2-3.2,0.9-4.2 c2.3,4.5,8.8,1.2,14,1.4c0.6-0.9,1.6-1.4,1.4-3c2.7,4.6,10.2,0.7,15.9,2.6c1.1-0.7,1.6-1.8,2.3-2.8c1.8,3.3,6.9,0.7,11,1.2 c2.3,0.3,4.2,1.6,6.3,1.4c1.8-0.2,2.5-1.2,4-1.6c2.6,3.6,8.4,6.9,15.2,6.1c1.9-0.2,3.8-1.7,5.6-1.4c1.5,0.2,2.9,2.6,4.7,3.7 c2,1.3,5.1,3,6.8,3.3c3.6,0.5,4-2.3,6.1-3c0,3.7,4.4,2.4,6.8,1.6c0.4,1.3-0.3,2.3,0.2,3.5c1.5,1.3,3.1,0.7,5.4,1.4 c5.1,1.7,8.7,7.1,11,0.7c-0.2,1,0.3,1.4,0.2,2.3c1.5,1.6,4.7,2.7,7.9,4.2c0.2,0.1,0.3,0.1,0.5,0.2c0.4,0.4,0.8,0.9,1.2,1.3 C225.8,186.3,228.8,189.1,231.7,191.9z M227.5,161.7c-0.1-0.9-0.1-1.8-0.1-2.7c0-0.3,0-0.5,0-0.8c0-0.7,0-1.4,0-2.1 c0-0.2,0-0.5,0-0.7c0-0.9,0-1.7,0-2.6c0,0,0,0,0,0c0-0.8,0.1-1.6,0.1-2.5c0,0,0,0,0,0c0-0.2,0-0.4,0-0.6c0.1-3.1-0.4-6.7,0.2-9.6 c0-0.1,0.1-0.2,0.1-0.4c0,0,0-0.1,0.1-0.1c0-0.1,0.1-0.2,0.1-0.2c0,0,0-0.1,0.1-0.1c0.1-0.1,0.1-0.2,0.2-0.3c0,0,0,0,0-0.1 c0.4-0.5,0.9-0.9,1.3-1.5l0,0c0.1-0.2,0.3-0.4,0.4-0.6c0.2-0.4,0.4-0.8,0.5-1.2l0,0c0,0,0,0,0,0c0-0.1,0.1-0.2,0.1-0.4 c0.1-0.2,0.2-0.5,0.3-0.7c0.1-0.3,0.3-0.6,0.5-1c1.2-2.1,3.2-5.2,4.4-7.2c7.7,2.4,13.1,7.1,18.9,11.5c-0.2,0.8-0.5,1.5-0.7,2.3 c-0.2,0.6-0.5,1.3-0.8,1.9c0,0.1-0.1,0.1-0.1,0.2c0,0,0,0,0,0c-0.1,0.3-0.3,0.6-0.4,0.9c0,0,0,0,0,0c-0.2,0.4-0.4,0.8-0.6,1.2 c0,0,0,0,0,0c-0.2,0.4-0.3,0.8-0.5,1.1c0,0,0,0,0,0c-0.2,0.4-0.3,0.7-0.5,1.1c0,0,0,0,0,0c-0.1,0-0.3,0-0.4,0c0,0-0.1,0-0.1,0 c-0.1,0-0.3,0-0.4-0.1c0,0,0,0,0,0c-1.2-0.3-2.7-1.4-4.1-2.2c-0.1,0-0.2-0.1-0.2-0.1c-0.1-0.1-0.2-0.1-0.3-0.2 c-0.1-0.1-0.2-0.1-0.3-0.2c-0.1-0.1-0.2-0.1-0.3-0.2c-0.1,0-0.2-0.1-0.3-0.1c-0.1,0-0.2-0.1-0.3-0.1c-0.1,0-0.2-0.1-0.3-0.1 c-0.1,0-0.2-0.1-0.2-0.1c-0.1,0-0.2,0-0.3-0.1c-0.1,0-0.1,0-0.2,0c-0.2,0-0.3,0-0.4,0c-0.1,0-0.1,0-0.2,0.1c-0.1,0-0.2,0-0.3,0.1 c-0.1,0-0.2,0.1-0.3,0.2c-0.1,0-0.1,0.1-0.2,0.1c-0.1,0.1-0.2,0.2-0.3,0.3c0,0-0.1,0-0.1,0.1c-0.6,0.7-1.1,1.8-1,2.8c0,0,0,0,0,0 c0,0,0,0.1,0,0.1c0.1,0.6,0.3,1,0.6,1.4c0.1,0.1,0.3,0.2,0.4,0.3c0,0,0,0,0,0c0.5,0.3,1.2,0.5,1.8,0.7c0.1,0,0.2,0.1,0.3,0.1 c0.1,0,0.1,0,0.2,0.1c0.2,0.1,0.3,0.1,0.5,0.2c0,0,0,0,0.1,0c0.2,0.1,0.3,0.2,0.5,0.3c0,0,0.1,0.1,0.1,0.1c0.2,0.1,0.3,0.2,0.4,0.4 c0,0.6-0.4,0.7-0.2,1.4c-0.4,0.3-0.8,0.4-1.2,0.4c-1.1,0-2.1-0.9-3-0.9c-0.1,0-0.2,0-0.3,0c-2,0.3-1.9,2.7-3,4.4 c2.3,1.6,5.3,2.5,6.8,4.9c-0.5,1.5-1.2,2.7-1.9,4C237,165.2,232.9,162.2,227.5,161.7z M246.8,161.9 C246.8,161.9,246.8,161.9,246.8,161.9c-0.5-0.3-0.5-0.8-0.5-1.4C246.3,161.1,246.3,161.6,246.8,161.9z M238.9,170.3 c-1.2,2.1-2.8,3.7-3.8,6C236.1,174.1,237.7,172.4,238.9,170.3C238.9,170.3,238.9,170.3,238.9,170.3z M239.6,179.4 c-1.5-0.9-3.3-1.4-4.9-2.1C236.3,178.1,238.1,178.6,239.6,179.4c-0.9,2.7,1.5,4.4,3.6,4.4C241.1,183.8,238.7,182.1,239.6,179.4z M253.4,170.3c-0.5,6.8-12.8,3.3-12.6-1.9c2-0.9,3.9-2.8,5.6-4.7C250.5,163.1,253.6,166.9,253.4,170.3z M248.5,161.7 c0.5,0,0.9,0.1,1.3,0.3C249.3,161.8,248.9,161.7,248.5,161.7z M248.9,157.7c1.1-2.8,2.4-5.4,3.5-8.2 C251.3,152.3,250,154.9,248.9,157.7c1.5,2.3,4.3,3.2,7,4.2C253.2,160.9,250.4,160,248.9,157.7z M257.3,160.3 c-2.3-0.5-4.1-1.5-5.8-2.6c0,0,0,0,0,0c0,0,0,0,0,0c0.3-1.1,0.7-2.1,1.1-3.2c0-0.1,0.1-0.2,0.1-0.3c0.3-0.9,0.7-1.9,1.1-2.9 c0.1-0.2,0.2-0.4,0.3-0.7c0.3-0.9,0.7-1.8,1.1-2.6c0.1-0.2,0.2-0.4,0.3-0.6c0.4-1,0.9-2,1.3-3c0-0.1,0-0.1,0.1-0.2c0,0,0,0,0,0 c0.2-0.4,0.4-0.7,0.5-1.1c0,0,0,0,0,0c0.1-0.1,0.1-0.2,0.2-0.3c0.4-0.8,0.8-1.6,1.2-2.4c0.2-0.4,0.5-0.9,0.7-1.3 c0.1-0.3,0.3-0.5,0.5-0.8c0.4-0.7,0.8-1.4,1.3-2.1c0.4,0.3,0.9,0.6,1.3,0.9c3,2.3,5.5,5,8.7,7C266.6,149.6,262.1,155.1,257.3,160.3z M41.3,136.6c0.1-0.2,0.2-0.3,0.4-0.4c0.1,0,0.2,0.1,0.2,0.1c0,0,0.1,0,0.1,0c0.1,0,0.1,0.1,0.2,0.1s0.1,0.1,0.2,0.1 c0.1,0,0.2,0.1,0.3,0.2c0.2,0.1,0.5,0.3,0.7,0.4c0,0,0.1,0,0.1,0.1c0.1,0.1,0.2,0.1,0.3,0.2s0.2,0.1,0.3,0.2s0.2,0.1,0.3,0.2 c0.1,0.1,0.2,0.1,0.2,0.2c0.1,0.1,0.1,0.1,0.2,0.2c0.8,0.8,1.6,1.8,2.3,2.7c-0.3,0.3-0.7,0.7-1.1,1c-0.4,0.3-0.8,0.5-1.2,0.7 c0,0,0,0,0,0c-0.4,0.2-0.9,0.4-1.3,0.5c0,0,0,0,0,0c-0.9,0.2-1.8,0.3-2.6,0l0,0c-0.1,0-0.2-0.1-0.2-0.1c0-1.1-0.1-2.7,0.1-4.1l0,0 c0-0.3,0.1-0.5,0.1-0.7c0,0,0-0.1,0-0.1c0.1-0.2,0.1-0.4,0.2-0.6c0,0,0-0.1,0-0.1C41.1,137,41.2,136.9,41.3,136.6 C41.3,136.7,41.3,136.6,41.3,136.6z M180,129.3c-2.1-0.1-4-1.4-3.7-3.8c0.2-2,3.2-4,5.6-3.8c0.9,0.1,1.7,0.4,2.2,1.1 c0.1,0.2,0.3,0.4,0.4,0.6c0.1,0.5,0.2,0.9,0.2,1.3C185,127.9,182.4,129.4,180,129.3z" fill="inherit"/></g></svg>