<?xml version="1.0" encoding="UTF-8" standalone="no"?><svg xmlns="http://www.w3.org/2000/svg" xmlns:xlink="http://www.w3.org/1999/xlink" fill="#000000" height="51.9" preserveAspectRatio="xMidYMid meet" version="1" viewBox="0.5 0.7 56.8 51.9" width="56.8" zoomAndPan="magnify"><g fill-rule="evenodd"><g id="change1_1"><path d="M 27.519531 48.320312 L 25.214844 50 C 24.953125 50.1875 24.691406 50.367188 24.417969 50.539062 C 23.09375 51.378906 21.632812 52.007812 20.039062 52.34375 C 19.628906 52.429688 19.210938 52.496094 18.792969 52.539062 C 18.355469 52.582031 17.9375 52.605469 17.539062 52.605469 C 17.140625 52.605469 16.71875 52.582031 16.28125 52.539062 C 15.863281 52.496094 15.445312 52.429688 15.039062 52.34375 C 12.828125 51.878906 10.863281 50.84375 9.167969 49.460938 C 7.257812 47.90625 5.683594 45.910156 4.472656 43.8125 C 3.132812 41.496094 2.152344 38.949219 1.5 36.324219 C 0.804688 33.511719 0.476562 30.605469 0.476562 27.785156 C 0.476562 24.964844 0.804688 22.058594 1.5 19.246094 C 2.152344 16.617188 3.132812 14.074219 4.472656 11.753906 C 5.683594 9.65625 7.257812 7.664062 9.167969 6.105469 C 9.394531 5.921875 9.625 5.746094 9.859375 5.574219 L 12.90625 3.359375 C 14.4375 2.246094 16.167969 1.410156 18.085938 1.011719 C 18.492188 0.925781 18.910156 0.859375 19.332031 0.816406 C 19.765625 0.769531 20.183594 0.746094 20.585938 0.746094 C 20.984375 0.746094 21.402344 0.769531 21.839844 0.816406 C 22.261719 0.859375 22.675781 0.925781 23.085938 1.011719 C 24.679688 1.34375 26.144531 1.976562 27.46875 2.816406 C 28.460938 3.445312 29.382812 4.199219 30.222656 5.03125 L 32.523438 3.359375 C 33.148438 2.90625 33.804688 2.5 34.488281 2.148438 C 36.226562 1.265625 38.140625 0.746094 40.199219 0.746094 C 40.597656 0.746094 41.019531 0.769531 41.457031 0.816406 C 41.875 0.859375 42.289062 0.925781 42.699219 1.011719 C 44.910156 1.472656 46.871094 2.511719 48.570312 3.890625 C 50.480469 5.449219 52.054688 7.441406 53.265625 9.539062 C 54.035156 10.867188 54.683594 12.269531 55.21875 13.714844 C 55.773438 15.207031 56.207031 16.765625 56.535156 18.355469 C 56.777344 19.53125 56.957031 20.722656 57.078125 21.914062 C 57.199219 23.15625 57.261719 24.378906 57.261719 25.570312 C 57.261719 26.898438 57.1875 28.257812 57.035156 29.625 C 56.886719 30.949219 56.664062 32.265625 56.367188 33.5625 C 56.039062 34.992188 55.609375 36.40625 55.078125 37.785156 C 54.570312 39.105469 53.964844 40.386719 53.265625 41.597656 C 52.054688 43.695312 50.480469 45.6875 48.570312 47.246094 C 48.34375 47.429688 48.113281 47.605469 47.878906 47.777344 L 44.832031 49.992188 C 43.296875 51.109375 41.570312 51.941406 39.652344 52.34375 C 39.242188 52.429688 38.828125 52.496094 38.40625 52.539062 C 37.972656 52.582031 37.550781 52.605469 37.152344 52.605469 C 35.09375 52.605469 33.179688 52.089844 31.441406 51.203125 C 30.003906 50.46875 28.6875 49.480469 27.519531 48.320312" fill="#ffde59"/></g><g id="change2_1"><path d="M 30.394531 44.175781 C 28.410156 46.492188 25.875 48.328125 22.84375 48.964844 C 22.101562 49.121094 21.34375 49.199219 20.585938 49.199219 C 19.828125 49.199219 19.070312 49.121094 18.328125 48.964844 C 14 48.054688 10.6875 44.710938 8.546875 41.003906 C 5.886719 36.402344 4.714844 30.847656 4.714844 25.570312 C 4.714844 20.289062 5.886719 14.734375 8.546875 10.132812 C 10.6875 6.425781 14 3.082031 18.328125 2.171875 C 19.070312 2.015625 19.828125 1.9375 20.585938 1.9375 C 21.34375 1.9375 22.101562 2.015625 22.84375 2.171875 C 25.875 2.808594 28.410156 4.644531 30.394531 6.960938 C 30.402344 6.949219 30.414062 6.9375 30.421875 6.921875 C 32.921875 4.015625 36.28125 1.9375 40.199219 1.9375 C 40.960938 1.9375 41.714844 2.015625 42.457031 2.171875 C 46.785156 3.082031 50.097656 6.425781 52.238281 10.132812 C 53.734375 12.722656 54.761719 15.617188 55.371094 18.589844 C 55.847656 20.886719 56.070312 23.238281 56.070312 25.570312 C 56.070312 28.140625 55.792969 30.757812 55.207031 33.296875 C 54.585938 36.007812 53.609375 38.632812 52.238281 41.003906 C 50.097656 44.710938 46.785156 48.054688 42.457031 48.964844 C 41.714844 49.121094 40.960938 49.199219 40.199219 49.199219 C 36.28125 49.199219 32.921875 47.121094 30.421875 44.210938 C 30.414062 44.199219 30.402344 44.1875 30.394531 44.175781"/></g><g id="change3_1"><path d="M 40.199219 2.890625 C 45.589844 2.890625 50.3125 7.234375 52.933594 13.746094 C 52.074219 13.316406 51.160156 13.085938 50.207031 13.085938 C 46.316406 13.085938 43.023438 16.949219 41.894531 22.289062 L 50.207031 26.355469 L 41.824219 30.074219 C 42.882812 35.59375 46.234375 39.628906 50.207031 39.628906 C 50.84375 39.628906 51.464844 39.523438 52.058594 39.328125 C 49.335938 44.75 45.035156 48.246094 40.199219 48.246094 C 36.796875 48.246094 33.65625 46.511719 31.144531 43.59375 C 34.542969 39.214844 36.695312 32.765625 36.695312 25.570312 C 36.695312 18.371094 34.542969 11.921875 31.144531 7.542969 C 33.65625 4.625 36.796875 2.890625 40.199219 2.890625" fill="#ffffff"/></g><g id="change3_2"><path d="M 20.585938 2.890625 C 25.976562 2.890625 30.699219 7.234375 33.320312 13.75 C 32.460938 13.320312 31.542969 13.085938 30.589844 13.085938 C 26.703125 13.085938 23.410156 16.953125 22.28125 22.289062 L 30.589844 26.355469 L 22.210938 30.074219 C 23.265625 35.59375 26.617188 39.625 30.589844 39.625 C 31.226562 39.625 31.847656 39.519531 32.445312 39.324219 C 29.71875 44.746094 25.421875 48.246094 20.585938 48.246094 C 12.34375 48.246094 5.667969 38.09375 5.667969 25.570312 C 5.667969 13.042969 12.34375 2.890625 20.585938 2.890625" fill="#ffffff"/></g></g></svg>