<?xml version="1.0" encoding="UTF-8"?><svg xmlns="http://www.w3.org/2000/svg" xmlns:xlink="http://www.w3.org/1999/xlink" height="264.4" preserveAspectRatio="xMidYMid meet" version="1.0" viewBox="0.0 0.0 430.5 264.4" width="430.5" zoomAndPan="magnify"><g id="change1_1"><path d="M412.45,34.67c0,7.33,7.75,13.27,17.32,13.27h0.7v18.8h-0.7c-4.78,0-9.1,1.49-12.25,3.89 c-3.13,2.41-5.07,5.73-5.07,9.4c0,7.33,7.75,13.27,17.32,13.27h0.7v18.8h-0.7c-4.78,0-9.1,1.49-12.25,3.89 c-3.13,2.41-5.07,5.73-5.07,9.4c0,7.33,7.75,13.27,17.32,13.27h0.7v18.8h-0.7c-4.78,0-9.1,1.49-12.25,3.89 c-3.13,2.41-5.07,5.73-5.07,9.4c0,7.33,7.75,13.27,17.32,13.27h0.7v18.8h-0.7c-4.78,0-9.1,1.49-12.25,3.89 c-3.13,2.41-5.07,5.73-5.07,9.4c0,7.33,7.75,13.27,17.32,13.27h0.7v34.98h-15.88c-0.04-4.7-1.51-8.95-3.88-12.05 c-2.41-3.13-5.73-5.07-9.4-5.07c-7.27,0-13.18,7.65-13.27,17.12h-18.81c-0.04-4.7-1.51-8.95-3.88-12.05 c-2.41-3.13-5.73-5.07-9.4-5.07c-7.27,0-13.18,7.65-13.27,17.12h-18.81c-0.04-4.7-1.51-8.95-3.88-12.05 c-2.41-3.13-5.73-5.07-9.4-5.07c-7.27,0-13.18,7.65-13.27,17.12h-18.81c-0.04-4.7-1.51-8.95-3.88-12.05 c-2.41-3.13-5.73-5.07-9.4-5.07c-7.27,0-13.18,7.65-13.27,17.12h-18.81c-0.04-4.7-1.51-8.95-3.88-12.05 c-2.41-3.13-5.73-5.07-9.4-5.07c-7.27,0-13.18,7.65-13.27,17.12h-18.81c-0.04-4.7-1.51-8.95-3.88-12.05 c-2.41-3.13-5.73-5.07-9.4-5.07c-7.27,0-13.18,7.65-13.27,17.12h-18.81c-0.04-4.7-1.51-8.95-3.88-12.05 c-2.41-3.13-5.73-5.07-9.4-5.07c-7.27,0-13.18,7.65-13.27,17.12H97.1c-0.04-4.7-1.51-8.95-3.88-12.05c-2.41-3.13-5.73-5.07-9.4-5.07 c-7.27,0-13.18,7.65-13.27,17.12H51.74c-0.04-4.7-1.51-8.95-3.88-12.05c-2.41-3.13-5.73-5.07-9.4-5.07 c-7.27,0-13.18,7.65-13.27,17.12H0v-34.98h0.7c9.57,0,17.32-5.95,17.32-13.27c0-3.67-1.94-6.98-5.07-9.4 c-3.15-2.4-7.47-3.89-12.25-3.89H0v-18.8h0.7c9.57,0,17.32-5.95,17.32-13.27c0-3.67-1.94-6.98-5.07-9.4 c-3.15-2.4-7.47-3.89-12.25-3.89H0v-18.8h0.7c9.57,0,17.32-5.95,17.32-13.27c0-3.67-1.94-6.98-5.07-9.4 c-3.15-2.4-7.47-3.89-12.25-3.89H0V93.3h0.7c9.57,0,17.32-5.95,17.32-13.27c0-3.67-1.94-6.98-5.07-9.4 c-3.15-2.4-7.47-3.89-12.25-3.89H0v-18.8h0.7c9.57,0,17.32-5.95,17.32-13.27c0-3.67-1.94-6.98-5.07-9.4 c-3.15-2.4-7.47-3.89-12.25-3.89H0V0h15.88c0.04,4.7,1.51,8.95,3.88,12.05c2.41,3.13,5.73,5.07,9.4,5.07 c7.27,0,13.18-7.65,13.27-17.12h18.81c0.04,4.7,1.51,8.95,3.88,12.05c2.41,3.13,5.73,5.07,9.4,5.07c7.27,0,13.18-7.65,13.27-17.12 h18.81c0.04,4.7,1.51,8.95,3.88,12.05c2.41,3.13,5.73,5.07,9.4,5.07c7.27,0,13.18-7.65,13.27-17.12h18.81 c0.04,4.7,1.51,8.95,3.88,12.05c2.41,3.13,5.73,5.07,9.4,5.07c7.27,0,13.18-7.65,13.27-17.12h18.81c0.04,4.7,1.51,8.95,3.88,12.05 c2.41,3.13,5.73,5.07,9.4,5.07c7.27,0,13.18-7.65,13.27-17.12h18.81c0.04,4.7,1.51,8.95,3.88,12.05c2.41,3.13,5.73,5.07,9.4,5.07 c7.27,0,13.18-7.65,13.27-17.12h18.81c0.04,4.7,1.51,8.95,3.88,12.05c2.41,3.13,5.73,5.07,9.4,5.07c7.27,0,13.18-7.65,13.27-17.12 h18.81c0.04,4.7,1.51,8.95,3.88,12.05c2.41,3.13,5.73,5.07,9.4,5.07c7.27,0,13.18-7.65,13.27-17.12h18.81 c0.04,4.7,1.51,8.95,3.88,12.05c2.41,3.13,5.73,5.07,9.4,5.07c7.27,0,13.18-7.65,13.27-17.12h25.2v21.39h-0.7 c-4.78,0-9.1,1.49-12.25,3.89C414.39,27.69,412.45,31,412.45,34.67z" fill="#FFE299"/></g><g id="change2_1"><path d="M402.27,37.04v189.82c0,6.38-5.18,11.56-11.56,11.56H39.75c-6.38,0-11.56-5.18-11.56-11.56V37.04 c0-6.38,5.18-11.56,11.56-11.56h350.96C397.09,25.48,402.27,30.66,402.27,37.04z" fill="#FF8FB1"/></g><g id="change3_1"><path d="M385.8,144.65c-7.17-2.46-15.48-1.32-21.74,2.97c-6.25,4.29-10.3,11.63-10.6,19.21 c-7.63-1.55-15.96,0.89-21.56,6.31c-5.6,5.41-8.31,13.66-7.02,21.34c-5.07,0.1-10.11,1.8-14.2,4.81c-7,5.14-10.85,13.74-11.93,22.35 c-0.71,5.58-0.37,11.2,0.43,16.78h91.53c6.38,0,11.56-5.18,11.56-11.56V114.17C392.8,121.38,386.43,132.73,385.8,144.65z M124.74,215.32c-5.22-11.76-19.5-17.17-32.33-16.29c1.18-10.77-2.23-22.28-10.15-29.68c-7.93-7.4-20.51-9.9-30.12-4.87 c2.55-8.9,0.86-18.91-4.46-26.48c-4.57-6.49-11.73-11.07-19.49-12.62v101.48c0,6.38,5.18,11.56,11.56,11.56h87.13 c0.36-2.55,0.46-5.15,0.45-7.72C127.31,225.46,126.87,220.1,124.74,215.32z" fill="#04987C"/></g><g id="change4_1"><path d="M385.05,167.88c-0.91-2.99-2.9-5.55-5.18-7.69c-5.1-4.79-11.65-7.7-18.14-10.3 c-30.97-12.42-63.97-19.84-97.29-21.5c-4.55-0.23-9.27-0.32-13.48,1.43c-4.21,1.75-7.79,5.83-7.51,10.38 c-5.17-0.89-13.57-2.06-22.04-2.94c-17.51-1.82-35.38-2.43-26.03,3.08c27.1,15.99,16.17,61.77,16.17,61.77l81.19,6.32l2.28,13.05 l1.4,8v-0.16c0-6.61,2.73-12.28,6.63-14.76c1.35-0.86,2.85-1.34,4.42-1.34c3.05,0,5.81,1.8,7.82,4.71c2,2.92,3.24,6.94,3.24,11.39 v9.1h7.12v-9.1c0-8.9,4.95-16.1,11.05-16.1c3.05,0,5.81,1.8,7.82,4.71c2,2.92,3.24,6.94,3.24,11.39v9.1h7.12v-9.1 c0-8.9,4.95-16.1,11.05-16.1c3.06,0,5.82,1.8,7.82,4.71c2,2.92,3.24,6.94,3.24,11.39v9.1h6.95c-3.17-20.55,1.76-41.64,1.82-62.72 C385.77,173.07,385.81,170.4,385.05,167.88z M258.63,161.81c2.52-0.09,4.85,1.26,6.59,3.51c1.73,2.27,2.86,5.42,2.99,8.95l0.25,7.06 c0.11,2.85-2.12,5.25-4.98,5.35l-7.9,0.28c-2.85,0.11-5.25-2.12-5.35-4.98l-0.26-7.06C249.72,167.86,253.6,162,258.63,161.81z M234.43,186.68l-7.91,0.28c-2.85,0.11-5.25-2.12-5.35-4.98l-0.25-7.06c-0.13-3.4,0.71-6.51,2.17-8.86 c1.57-2.53,3.87-4.15,6.48-4.25c2.52-0.09,4.85,1.26,6.59,3.51c1.73,2.27,2.87,5.42,3,8.95l0.25,7.06c0.02,0.65-0.08,1.28-0.29,1.86 C238.45,185.16,236.63,186.6,234.43,186.68z M319.59,180.45l-0.69,7.03c-0.27,2.84-2.8,4.92-5.64,4.65l-7.87-0.77 c-2.84-0.27-4.92-2.8-4.65-5.64l0.68-7.03c0.68-7.03,5.3-12.34,10.31-11.85c2.51,0.24,4.64,1.89,6.07,4.35 C319.22,173.66,319.93,176.93,319.59,180.45z M347.28,185.84l-0.69,7.03c-0.27,2.85-2.8,4.93-5.64,4.65l-7.87-0.76 c-2.85-0.28-4.93-2.8-4.65-5.65l0.68-7.03c0.68-7.03,5.3-12.33,10.31-11.85c2.51,0.25,4.64,1.89,6.07,4.35 C346.91,179.05,347.62,182.33,347.28,185.84z M374.48,191.59l-0.68,7.03c-0.28,2.84-2.81,4.92-5.65,4.65l-7.87-0.77 c-2.84-0.27-4.92-2.8-4.65-5.64l0.68-7.04c0.68-7.03,5.3-12.33,10.31-11.84c2.51,0.24,4.64,1.88,6.07,4.34 C374.11,184.8,374.82,188.07,374.48,191.59z" fill="#D0BAFF"/></g><g id="change5_1"><path d="M303.05,214.56c-0.24-4.15-0.6-8.29-1.07-12.42c-0.42-3.62-1.18-7.67-4.19-9.73 c-2.14-1.47-4.91-1.55-7.51-1.55c-13.82-0.03-27.65,0.47-41.43,1.5c0.25-3.35,0.05-7.53-2.99-8.96c-1.18-0.55-2.54-0.52-3.84-0.45 c-0.97,0.06-1.93,0.14-2.9,0.24c-2.86,0.3-5.71,0.8-8.51,1.49c-2.51-6.21-5.01-12.41-7.52-18.62c-0.22-0.54-0.44-1.09-0.66-1.63 c-1.41-3.5-2.84-7.09-2.98-10.86c-0.14-4.1,1.25-8.08,1.8-12.14c0.19-1.35,0.24-2.76,0.16-4.17c-0.29-4.72-2.22-9.35-6.35-11.38 c-3.49-1.71-7.61-1.13-11.45-0.51c-1.83,0.3-3.66,0.6-5.49,0.9c0,0-2.7-9.39-6.99-22.05c0.78-0.37,1.56-0.78,2.3-1.24 c0.62-0.38,1.23-0.81,1.63-1.42c0.38-0.58,0.53-1.28,0.64-1.97c0.94-6.09-1.16-12.58-5.49-16.96c-0.75-0.76-1.58-1.47-2.57-1.88 c-1.63-0.67-3.36-0.43-5.03,0.21c-8.31-20.86-18.68-41.45-27.8-43.31c-6.28-1.28-12.65,0.05-18.6,2.43 c-24.6,9.83-49.95,20.81-67.15,40.96c-5.17,6.05-9.68,14.06-7.27,21.65c0.63,1.96,1.68,3.75,2.44,5.66 c1.65,4.15,1.81,8.68,1.65,13.19c-2.54,0.96-4.64,3.05-5.56,5.62c-0.62,1.76-0.71,3.66-0.58,5.53c0.16,2.21,0.63,4.44,1.77,6.34 c0.79,1.33,1.94,2.48,3.3,3.19c-0.31,6.3-0.6,12.6-0.84,18.91c-2.5,1.74-4.06,4.92-4.49,8.04c-0.33,2.4-0.14,4.94,0.98,7.08 c0.67,1.28,1.72,2.39,2.97,3.11c-0.14,6.67-0.2,13.35-0.17,20.02c-0.54,0.15-1.08,0.48-1.5,0.86c-3.16,2.84-3.69,7.67-2.85,11.83 c0.26,1.28,0.65,2.59,1.54,3.55c0.83,0.88,1.94,1.33,3.14,1.59c0.23,7.08,0.6,14.15,1.13,21.21h4.98v-9.1 c0-8.9,4.95-16.1,11.05-16.1c3.05,0,5.81,1.8,7.82,4.71c2,2.92,3.24,6.94,3.24,11.39v9.1h7.12v-9.1c0-8.9,4.95-16.1,11.05-16.1 c3.05,0,5.81,1.8,7.82,4.71c2,2.92,3.24,6.94,3.24,11.39v9.1h7.12v-9.1c0-8.9,4.95-16.1,11.05-16.1c3.05,0,5.81,1.8,7.82,4.71 c2,2.92,3.24,6.94,3.24,11.39v9.1h7.12v-9.1c0-8.9,4.95-16.1,11.05-16.1c3.05,0,5.81,1.8,7.82,4.71c2,2.92,3.24,6.94,3.24,11.39v9.1 h7.12v-9.1c0-8.9,4.95-16.1,11.05-16.1c3.05,0,5.81,1.8,7.82,4.71c2,2.92,3.24,6.94,3.24,11.39v9.1h7.12v-9.1 c0-8.9,4.95-16.1,11.05-16.1c3.05,0,5.81,1.8,7.82,4.71c2,2.92,3.24,6.94,3.24,11.39v9.1h7.12v-9.1c0-8.9,4.95-16.1,11.05-16.1 c3.06,0,5.82,1.8,7.82,4.71c2,2.92,3.24,6.94,3.24,11.39v9.1h7.12v-9.1c0-8.9,4.96-16.1,11.05-16.1c3.06,0,5.82,1.8,7.83,4.71 c0.72,1.05,1.34,2.25,1.83,3.55c0.89,2.32,1.4,4.99,1.4,7.84v9.1h6.76C303.57,230.48,303.52,222.5,303.05,214.56z M70.19,150.93 c-0.25-7.06,3.63-12.93,8.66-13.11c2.52-0.09,4.84,1.26,6.58,3.51c1.74,2.26,2.87,5.42,3,8.95l0.25,7.06 c0.1,2.85-2.13,5.25-4.98,5.35l-7.9,0.28c-2.86,0.1-5.25-2.13-5.36-4.98L70.19,150.93z M85.05,200.2l-7.91,0.28 c-2.85,0.1-5.25-2.13-5.35-4.98l-0.25-7.06c-0.26-7.06,3.62-12.93,8.65-13.11c2.52-0.09,4.85,1.26,6.59,3.51 c1.73,2.26,2.87,5.41,2.99,8.94l0.26,7.07C90.13,197.7,87.9,200.09,85.05,200.2z M100.36,137.33c-0.25-7.06,3.63-12.93,8.66-13.11 c2.52-0.09,4.85,1.26,6.59,3.51c1.73,2.26,2.86,5.41,2.99,8.94l0.25,7.07c0.1,2.85-2.13,5.24-4.98,5.35l-7.9,0.28 c-2.86,0.1-5.25-2.13-5.36-4.98L100.36,137.33z M115.51,194.76l-7.91,0.28c-2.85,0.11-5.24-2.12-5.35-4.98L102,183 c-0.25-7.06,3.63-12.92,8.66-13.11c2.52-0.09,4.84,1.26,6.58,3.51c1.74,2.27,2.87,5.42,3,8.95l0.25,7.06 C120.59,192.26,118.36,194.66,115.51,194.76z M128.98,137.35l-0.26-7.06c-0.25-7.06,3.63-12.92,8.66-13.1 c2.52-0.09,4.85,1.25,6.59,3.5c1.73,2.27,2.86,5.42,2.99,8.95l0.25,7.06c0.11,2.85-2.12,5.25-4.98,5.35l-7.9,0.29 C131.47,142.44,129.08,140.21,128.98,137.35z M145.49,190.11l-7.91,0.28c-2.85,0.1-5.24-2.13-5.35-4.98l-0.25-7.06 c-0.25-7.06,3.63-12.93,8.66-13.11c2.52-0.09,4.84,1.26,6.58,3.51c1.74,2.26,2.87,5.42,3,8.95l0.25,7.06 C150.57,187.61,148.34,190.01,145.49,190.11z M156.81,129.85l-0.25-7.06c-0.26-7.06,3.62-12.92,8.65-13.1 c2.52-0.1,4.85,1.25,6.59,3.5c1.73,2.27,2.87,5.42,3,8.95l0.25,7.06c0.1,2.85-2.13,5.25-4.98,5.35l-7.91,0.28 C159.31,134.94,156.91,132.71,156.81,129.85z M174.41,184.48l-7.9,0.28c-2.86,0.1-5.25-2.13-5.35-4.98l-0.26-7.06 c-0.25-7.06,3.63-12.93,8.66-13.11c2.52-0.09,4.85,1.26,6.59,3.51c1.73,2.26,2.86,5.41,2.99,8.94l0.25,7.06 C179.5,181.98,177.27,184.37,174.41,184.48z M200.93,182.76l-7.9,0.28c-2.86,0.1-5.25-2.13-5.36-4.98l-0.25-7.06 c-0.25-7.06,3.63-12.93,8.66-13.11c2.52-0.09,4.84,1.26,6.58,3.51c1.74,2.26,2.87,5.41,3,8.94l0.25,7.06 C206.01,180.26,203.78,182.65,200.93,182.76z M247.71,81.89c-2.97-2.75-5.93-5.51-8.9-8.26c4.88-3.43,7.99-8.32,6.61-14.79 c-3.29-15.41-24.55-12.28-34.43-6.25c-2.41,1.47-3.19,3.75-2.91,5.91c-0.13,9.98-0.26,19.96-0.39,29.93 c-0.11,8.05,12.39,8.05,12.5,0c0.04-2.89,0.08-5.78,0.11-8.66c1.89-0.15,3.91-0.44,5.96-0.9c0.21,0.28,0.43,0.55,0.69,0.79 c3.98,3.69,7.95,7.38,11.92,11.07c2.48,2.3,6.39,2.45,8.84,0C250.04,88.41,250.19,84.2,247.71,81.89z M225.74,68.59 c-2.68,0-4.85-2.17-4.85-4.85s2.17-4.85,4.85-4.85s4.85,2.17,4.85,4.85S228.42,68.59,225.74,68.59z M346.5,85.19 c-1.38-11.31-3.37-22.49-6.17-33.53c-1.45-5.75-8.37-5.48-11.42-1.5c-2.77,3.61-5.31,7.35-7.64,11.22 c-2.26-3.34-4.53-6.68-6.8-10.02c-2.86-4.22-10.08-4.04-11.42,1.49c-2.57,10.64-4.25,21.44-5.12,32.35c-0.63,8.02,11.87,7.98,12.5,0 c0.4-5.01,1.01-9.97,1.81-14.9c1.41,2.07,2.81,4.13,4.21,6.2c2.44,3.59,8.57,4.5,10.79,0c1.3-2.62,2.68-5.18,4.15-7.68 c1.06,5.42,1.94,10.88,2.61,16.37C334.96,93.07,347.47,93.17,346.5,85.19z M382.29,78.46c-5.97-0.06-11.95-0.12-17.92-0.19 c0.01-0.93,0.03-1.87,0.04-2.81c5.05,0.05,10.09,0.11,15.14,0.16c8.04,0.08,8.05-12.42,0-12.5c-4.98-0.05-9.95-0.1-14.93-0.16 c0.02-0.94,0.03-1.89,0.05-2.83c5.87,0.06,11.75,0.12,17.62,0.18c8.05,0.08,8.06-12.42,0-12.5c-7.92-0.08-15.84-0.17-23.77-0.25 c-2.64-0.03-4.41,1.31-5.32,3.11c-0.56,0.88-0.91,1.96-0.93,3.27c-0.17,10.21-0.34,20.43-0.51,30.65c-0.06,3.78,2.67,5.79,5.6,6.01 c0.37,0.06,0.75,0.11,1.16,0.11c7.93,0.08,15.85,0.17,23.77,0.25C390.34,91.04,390.35,78.54,382.29,78.46z M272.74,47.55 c-14.98,0-21.82,9.77-21.82,21.82s9.77,23.46,21.82,23.46s21.81-11.41,21.81-23.46S284.79,47.55,272.74,47.55z M272.74,75.62 c-3.58,0-6.48-2.89-6.48-6.47c0-3.57,2.9-6.47,6.48-6.47c3.57,0,6.47,2.9,6.47,6.47C279.21,72.73,276.31,75.62,272.74,75.62z" fill="#E80B23"/></g><g id="change4_2"><path d="M235.22,55.06c-0.18-0.11-0.37-0.21-0.56-0.3c-0.1-0.05-0.19-0.09-0.29-0.14c-0.01-0.01-0.04-0.02-0.07-0.03 c-0.05-0.02-0.14-0.06-0.16-0.07c-0.1-0.04-0.2-0.08-0.3-0.11c-0.2-0.07-0.4-0.13-0.61-0.19c-0.81-0.23-1.23-1.04-1.05-1.85 c0.18-0.78,1.09-1.27,1.85-1.05c3.79,1.1,6.81,3.98,8.22,7.65c0.3,0.78-0.34,1.62-1.05,1.85c-0.82,0.27-1.56-0.32-1.85-1.05 c-0.03-0.08-0.06-0.17-0.1-0.26c-0.01-0.03-0.03-0.05-0.04-0.07c-0.09-0.19-0.18-0.38-0.29-0.57c-0.18-0.34-0.39-0.68-0.61-1 c-0.06-0.09-0.12-0.17-0.18-0.26c-0.01-0.01-0.02-0.04-0.04-0.06c0.01,0.01,0.01,0.01,0.01,0.02c-0.08-0.16-0.26-0.32-0.38-0.45 c-0.26-0.29-0.53-0.57-0.82-0.84c-0.14-0.13-0.29-0.26-0.44-0.38c-0.07-0.06-0.14-0.11-0.21-0.17c-0.03-0.02-0.06-0.04-0.08-0.05 C235.88,55.47,235.55,55.25,235.22,55.06z M229.83,51.35c-0.09-0.17-0.22-0.32-0.39-0.42c-0.14-0.13-0.31-0.22-0.51-0.27 c-0.2-0.06-0.4-0.07-0.6-0.03c-0.2,0.01-0.39,0.07-0.56,0.18c-0.1,0.08-0.2,0.16-0.3,0.23c-0.19,0.19-0.31,0.41-0.39,0.66 c-0.02,0.13-0.04,0.27-0.05,0.4c0,0.27,0.07,0.52,0.2,0.76c0.04,0.09,0.09,0.17,0.13,0.26c0.09,0.17,0.22,0.32,0.39,0.42 c0.14,0.13,0.31,0.22,0.51,0.27c0.2,0.06,0.4,0.07,0.6,0.03c0.2-0.01,0.39-0.07,0.56-0.18c0.1-0.08,0.2-0.16,0.3-0.23 c0.19-0.19,0.31-0.41,0.39-0.66c0.02-0.13,0.04-0.27,0.05-0.4c0-0.27-0.07-0.52-0.2-0.76C229.91,51.52,229.87,51.43,229.83,51.35z M279.87,52.63c-0.74-0.25-1.67,0.29-1.85,1.05c-0.19,0.83,0.25,1.58,1.05,1.85c0.21,0.07,0.42,0.15,0.63,0.23 c0.01,0,0.01,0,0.02,0.01c0.01,0.01,0.02,0.01,0.04,0.02c0.1,0.05,0.2,0.09,0.3,0.14c0.39,0.19,0.76,0.4,1.12,0.63 c0.19,0.12,0.37,0.25,0.56,0.38c0.07,0.05,0.14,0.1,0.2,0.15c0.03,0.02,0.05,0.05,0.07,0.06c0.35,0.28,0.68,0.59,0.99,0.91 c0.16,0.16,0.31,0.33,0.45,0.5c0.06,0.07,0.12,0.14,0.18,0.21c0.02,0.03,0.17,0.23,0.15,0.19c0.04,0.05,0.08,0.11,0.09,0.13 c0.05,0.08,0.11,0.15,0.16,0.23c0.13,0.19,0.25,0.37,0.36,0.57c0.23,0.39,0.43,0.78,0.62,1.19c0.01,0.01,0.01,0.01,0.01,0.02 c0,0.01,0.01,0.02,0.01,0.03c0.04,0.1,0.08,0.21,0.12,0.31c0.08,0.21,0.14,0.42,0.21,0.64c0.22,0.75,1.06,1.3,1.85,1.05 c0.76-0.25,1.29-1.04,1.05-1.85C287.05,57.22,283.87,53.97,279.87,52.63z M275.44,52.19c-0.1-0.08-0.2-0.16-0.3-0.23 c-0.23-0.14-0.49-0.2-0.76-0.2c-0.04,0-0.09,0-0.13,0c-0.21-0.01-0.4,0.04-0.58,0.13c-0.19,0.06-0.35,0.16-0.48,0.31 c-0.15,0.14-0.25,0.3-0.31,0.48c-0.09,0.18-0.14,0.37-0.13,0.58c0.02,0.13,0.04,0.27,0.05,0.4c0.07,0.25,0.2,0.47,0.39,0.66 c0.1,0.08,0.2,0.16,0.3,0.23c0.23,0.14,0.49,0.2,0.76,0.2c0.04,0,0.09,0,0.13,0c0.21,0.01,0.4-0.04,0.58-0.13 c0.19-0.06,0.35-0.16,0.48-0.31c0.15-0.14,0.25-0.3,0.31-0.48c0.09-0.18,0.14-0.37,0.13-0.58c-0.02-0.13-0.04-0.27-0.05-0.4 C275.76,52.6,275.63,52.38,275.44,52.19z M335.62,50.97c-1.93,0-1.93,3,0,3C337.55,53.97,337.55,50.97,335.62,50.97z M311.06,52.92 c-0.33-0.26-0.63-0.44-1.06-0.44c-0.37,0-0.81,0.16-1.06,0.44c-0.26,0.29-0.46,0.66-0.44,1.06c0.02,0.37,0.13,0.82,0.44,1.06 c1.05,0.82,1.99,1.77,2.81,2.81c0.14,0.19,0.28,0.38,0.42,0.57c0.22,0.33,0.51,0.58,0.9,0.69c0.36,0.1,0.84,0.05,1.16-0.15 c0.32-0.21,0.6-0.51,0.69-0.9c0.09-0.38,0.08-0.82-0.15-1.16C313.72,55.41,312.49,54.05,311.06,52.92z M379.85,53.16 c0.07-0.02,0.14-0.03,0.21-0.04c0.24-0.02,0.47-0.02,0.71,0c0.24,0.04,0.47,0.11,0.7,0.19c0.2,0.09,0.38,0.2,0.56,0.33 c0.2,0.17,0.39,0.34,0.55,0.55c0.23,0.28,0.72,0.44,1.06,0.44c0.37,0,0.81-0.16,1.06-0.44c0.26-0.29,0.46-0.66,0.44-1.06 c-0.02-0.42-0.18-0.73-0.44-1.06c-0.65-0.81-1.58-1.37-2.55-1.69c-0.99-0.33-2.09-0.35-3.09-0.1c-0.76,0.19-1.29,1.09-1.05,1.85 C378.26,52.9,379.03,53.36,379.85,53.16z M379.65,67.88c0.22,0.18,0.42,0.37,0.6,0.6c-0.01-0.01-0.02-0.02-0.03-0.04 c0.21,0.29,0.48,0.52,0.83,0.62c0.36,0.1,0.84,0.05,1.16-0.15c0.32-0.21,0.6-0.51,0.69-0.9c0.09-0.38,0.08-0.83-0.15-1.16 c-0.45-0.66-1-1.2-1.68-1.64c-0.33-0.21-0.69-0.36-1.05-0.5c-0.27-0.1-0.54-0.18-0.83-0.22c-0.2-0.06-0.4-0.07-0.6-0.03 c-0.2,0.01-0.39,0.07-0.56,0.18c-0.31,0.18-0.61,0.54-0.69,0.9c-0.09,0.38-0.07,0.82,0.15,1.16c0.2,0.31,0.52,0.63,0.9,0.69 c0.27,0.04,0.52,0.12,0.77,0.22C379.34,67.68,379.5,67.78,379.65,67.88z M385.36,83c-0.48-0.85-1.24-1.59-2.12-2.04 c-0.88-0.45-1.9-0.72-2.9-0.6c-0.41,0.05-0.76,0.14-1.06,0.44c-0.26,0.26-0.46,0.69-0.44,1.06c0.02,0.39,0.14,0.79,0.44,1.06 c0.27,0.25,0.67,0.48,1.06,0.44c0.23-0.03,0.46-0.02,0.69-0.01c0.19,0.04,0.38,0.09,0.56,0.15c0.2,0.09,0.38,0.21,0.56,0.33 c0.16,0.14,0.31,0.28,0.45,0.44c0.05,0.08,0.11,0.16,0.16,0.24c0.39,0.68,1.38,0.97,2.05,0.54C385.51,84.6,385.77,83.73,385.36,83z M374.4,50.33c-2.81-0.03-5.62-0.11-8.43-0.26c-0.78-0.04-1.53,0.72-1.5,1.5c0.04,0.85,0.66,1.46,1.5,1.5 c2.81,0.15,5.62,0.24,8.43,0.26c0.78,0.01,1.54-0.7,1.5-1.5C375.87,51.01,375.25,50.34,374.4,50.33z M339.79,58.37 c-0.48-1.87-3.37-1.08-2.89,0.8c1.08,4.24,2.05,8.51,2.9,12.8c0.16,0.79,1.1,1.25,1.85,1.05c0.83-0.23,1.21-1.05,1.05-1.85 C341.84,66.88,340.87,62.61,339.79,58.37z M331.39,53.59c-0.35-0.18-0.77-0.28-1.16-0.15c-0.39,0.13-0.66,0.36-0.9,0.69 c-0.85,1.19-1.7,2.38-2.55,3.57c-0.21,0.3-0.25,0.81-0.15,1.16c0.1,0.35,0.36,0.72,0.69,0.9c0.35,0.18,0.77,0.28,1.16,0.15 c0.39-0.13,0.66-0.36,0.9-0.69c0.85-1.19,1.7-2.38,2.55-3.57c0.21-0.3,0.25-0.81,0.15-1.16C331.99,54.14,331.72,53.76,331.39,53.59z M237.74,75.41c-0.54-0.57-1.59-0.58-2.12,0c-0.56,0.61-0.57,1.51,0,2.12c1.54,1.64,3.1,3.25,4.7,4.83c0.56,0.55,1.57,0.6,2.12,0 c0.55-0.6,0.59-1.53,0-2.12C240.84,78.66,239.28,77.05,237.74,75.41z" fill="#D0BAFF"/></g><g id="change1_2"><path d="M246.67,101.29c0.04,0.8-0.72,1.52-1.5,1.5c-0.96-0.02-1.92-0.02-2.88-0.02c0.01,0.96,0.02,1.93,0.05,2.89 c0.03,0.84-0.71,1.46-1.5,1.5c-0.83,0.04-1.48-0.72-1.5-1.5c-0.03-0.96-0.04-1.92-0.05-2.88c-0.95,0.01-1.9,0.02-2.86,0.05 c-0.84,0.03-1.46-0.71-1.5-1.5c-0.04-0.83,0.72-1.48,1.5-1.5c0.95-0.03,1.89-0.04,2.84-0.05c0-0.95,0-1.91,0.02-2.86 c0.02-0.84,0.67-1.46,1.5-1.5c0.8-0.04,1.52,0.72,1.5,1.5c-0.02,0.95-0.02,1.89-0.02,2.84c0.96,0,1.93,0,2.89,0.02 C246.01,99.81,246.64,100.47,246.67,101.29z M348.13,50.54c0.86-0.38,1.65-0.72,2.44-1.06c0.4,0.95,0.81,1.91,1.23,2.86 c0.32,0.72,1.42,0.94,2.05,0.54c0.74-0.48,0.88-1.28,0.54-2.05c-0.39-0.87-0.73-1.68-1.07-2.47c0.84-0.34,1.68-0.68,2.53-1.01 c0.73-0.28,1.31-1.02,1.05-1.85c-0.23-0.71-1.06-1.35-1.85-1.05c-0.96,0.37-1.91,0.76-2.86,1.14c-0.33-0.83-0.67-1.65-0.99-2.48 c-0.28-0.73-1.02-1.31-1.85-1.05c-0.71,0.23-1.35,1.06-1.05,1.85c0.36,0.95,0.75,1.89,1.13,2.83c-0.94,0.4-1.88,0.79-2.81,1.21 c-0.72,0.32-0.94,1.42-0.54,2.05C346.56,50.74,347.36,50.88,348.13,50.54z M70.58,58.1c-3.22-0.95-6.68-1.95-9.02-4.5 c-2.22-2.41-3.06-5.78-3.18-8.97c0.04-0.99-0.73-1.47-1.5-1.44c-0.77-0.03-1.54,0.45-1.5,1.44c-0.12,3.19-0.96,6.58-3.18,8.97 c-2.36,2.55-5.8,3.54-9.02,4.5c-1.34,0.4-1.51,2.59,0,2.89c3.27,0.65,6.69,1.93,8.76,4.7c2.15,2.86,2.58,6.64,2.98,10.08 c0.12,1.08,1.15,1.55,1.97,1.4c0.82,0.15,1.84-0.32,1.96-1.4c0.39-3.43,0.82-7.24,2.98-10.08c2.09-2.76,5.48-4.05,8.76-4.7 C72.09,60.7,71.92,58.5,70.58,58.1z M365.11,90.72c-3.22-0.95-6.68-1.95-9.02-4.5c-2.22-2.41-3.06-5.78-3.18-8.97 c0.04-0.99-0.73-1.47-1.5-1.44c-0.77-0.03-1.54,0.45-1.5,1.44c-0.12,3.19-0.96,6.58-3.18,8.97c-2.36,2.55-5.8,3.54-9.02,4.5 c-1.34,0.4-1.51,2.59,0,2.89c3.27,0.65,6.69,1.93,8.76,4.7c2.15,2.86,2.58,6.64,2.98,10.08c0.12,1.08,1.15,1.55,1.97,1.4 c0.82,0.15,1.84-0.32,1.96-1.4c0.39-3.43,0.82-7.24,2.98-10.08c2.09-2.76,5.48-4.05,8.76-4.7 C366.63,93.32,366.45,91.12,365.11,90.72z M202.83,52.55c-2.25,0.45-4.62,1.31-6.05,3.22c-1.47,1.97-1.76,4.59-2.04,6.95 c-0.09,0.8-0.61,1.51-1.5,1.5c-0.11,0-0.22-0.02-0.33-0.05c-0.11,0.03-0.23,0.05-0.34,0.05c-0.88-0.01-1.41-0.69-1.5-1.5 c-0.27-2.36-0.56-5-2.04-6.95c-1.44-1.91-3.79-2.76-6.05-3.22c-1.51-0.3-1.34-2.5,0-2.89c2.22-0.66,4.61-1.33,6.25-3.08 c1.53-1.64,2.09-3.96,2.18-6.15c-0.04-0.99,0.73-1.47,1.5-1.44c0.77-0.03,1.54,0.45,1.5,1.44c0.09,2.18,0.65,4.51,2.18,6.15 c1.63,1.75,4.02,2.43,6.25,3.08C204.18,50.05,204.34,52.24,202.83,52.55z M197.9,51.08c-1.38-0.64-2.66-1.47-3.66-2.65 c-0.53-0.61-0.96-1.28-1.32-1.98c-0.37,0.7-0.8,1.36-1.32,1.98c-1.01,1.18-2.28,2.01-3.66,2.65c1.35,0.71,2.56,1.65,3.5,2.89 c0.66,0.87,1.13,1.83,1.49,2.82c0.36-1,0.83-1.95,1.49-2.82C195.34,52.73,196.55,51.78,197.9,51.08z M93.14,51.32 c-1.46,0.29-3.01,0.82-3.96,2.04c-1,1.29-1.18,3.07-1.36,4.63c-0.09,0.81-0.61,1.5-1.5,1.5c-0.08,0-0.15-0.01-0.23-0.03 c-0.08,0.01-0.16,0.03-0.23,0.03c-0.88,0-1.41-0.7-1.5-1.5c-0.18-1.56-0.36-3.35-1.36-4.63c-0.95-1.22-2.49-1.75-3.96-2.04 c-1.51-0.3-1.34-2.5,0-2.89c1.48-0.44,3.08-0.87,4.16-2.04c0.98-1.06,1.33-2.57,1.39-3.97c-0.04-0.99,0.73-1.47,1.5-1.44 c0.77-0.03,1.54,0.45,1.5,1.44c0.06,1.4,0.4,2.92,1.39,3.97c1.09,1.17,2.68,1.6,4.16,2.04C94.48,48.82,94.65,51.02,93.14,51.32z M88.64,49.89c-0.73-0.41-1.39-0.91-1.95-1.56c-0.22-0.26-0.42-0.54-0.61-0.82c-0.18,0.28-0.38,0.56-0.61,0.82 c-0.55,0.65-1.22,1.15-1.95,1.56c0.72,0.47,1.37,1.05,1.9,1.76c0.26,0.34,0.46,0.7,0.65,1.07c0.19-0.37,0.4-0.73,0.65-1.07 C87.27,50.94,87.92,50.36,88.64,49.89z M297.62,37.7c-2.3,0-4.17,1.87-4.17,4.17c0,2.3,1.87,4.17,4.17,4.17 c2.3,0,4.17-1.87,4.17-4.17C301.79,39.57,299.92,37.7,297.62,37.7z" fill="#FFE299"/></g></svg>