<?xml version="1.0" encoding="UTF-8"?><svg xmlns="http://www.w3.org/2000/svg" xmlns:xlink="http://www.w3.org/1999/xlink" height="56.6" preserveAspectRatio="xMidYMid meet" version="1.0" viewBox="0.6 0.2 56.6 56.6" width="56.6" zoomAndPan="magnify"><g><g id="change1_1"><path d="M 28.914062 0.183594 C 44.539062 0.183594 57.210938 12.855469 57.210938 28.480469 C 57.210938 44.109375 44.539062 56.777344 28.914062 56.777344 C 13.285156 56.777344 0.617188 44.109375 0.617188 28.480469 C 0.617188 12.855469 13.285156 0.183594 28.914062 0.183594" fill="#fc0" fill-rule="evenodd"/></g><g id="change2_1"><path d="M 28.914062 2.621094 C 36.054688 2.621094 42.519531 5.515625 47.199219 10.195312 C 51.878906 14.875 54.773438 21.339844 54.773438 28.480469 C 54.773438 35.621094 51.878906 42.085938 47.199219 46.765625 C 42.519531 51.445312 36.054688 54.339844 28.914062 54.339844 C 21.773438 54.339844 15.308594 51.445312 10.628906 46.765625 C 5.949219 42.085938 3.054688 35.621094 3.054688 28.480469 C 3.054688 21.339844 5.949219 14.875 10.628906 10.195312 C 15.308594 5.515625 21.773438 2.621094 28.914062 2.621094 Z M 46.070312 11.328125 C 41.679688 6.9375 35.613281 4.222656 28.914062 4.222656 C 22.214844 4.222656 16.148438 6.9375 11.757812 11.328125 C 7.371094 15.71875 4.652344 21.78125 4.652344 28.480469 C 4.652344 35.179688 7.371094 41.246094 11.757812 45.636719 C 16.148438 50.023438 22.214844 52.742188 28.914062 52.742188 C 35.613281 52.742188 41.679688 50.023438 46.070312 45.636719 C 50.457031 41.246094 53.171875 35.179688 53.171875 28.480469 C 53.171875 21.78125 50.457031 15.71875 46.070312 11.328125"/></g><g id="change2_2"><path d="M 21.464844 15.277344 C 23.472656 15.277344 25.101562 18.417969 25.101562 22.289062 C 25.101562 26.160156 23.472656 29.300781 21.464844 29.300781 C 19.457031 29.300781 17.832031 26.160156 17.832031 22.289062 C 17.832031 18.417969 19.457031 15.277344 21.464844 15.277344" fill-rule="evenodd"/></g><g id="change2_3"><path d="M 35.773438 15.277344 C 37.78125 15.277344 39.410156 18.417969 39.410156 22.289062 C 39.410156 26.160156 37.78125 29.300781 35.773438 29.300781 C 33.765625 29.300781 32.136719 26.160156 32.136719 22.289062 C 32.136719 18.417969 33.765625 15.277344 35.773438 15.277344" fill-rule="evenodd"/></g><g id="change2_4"><path d="M 46.382812 32.78125 C 45.425781 36.675781 43.199219 40.074219 40.167969 42.511719 C 37.085938 44.984375 33.171875 46.46875 28.914062 46.46875 C 24.65625 46.46875 20.742188 44.984375 17.660156 42.511719 C 14.628906 40.074219 12.402344 36.675781 11.445312 32.78125 C 11.148438 32.707031 10.871094 32.566406 10.636719 32.378906 C 10.269531 32.082031 10.003906 31.667969 9.898438 31.191406 C 9.828125 30.859375 10.039062 30.53125 10.371094 30.460938 C 10.703125 30.390625 11.03125 30.601562 11.101562 30.933594 C 11.144531 31.128906 11.253906 31.300781 11.40625 31.421875 C 11.554688 31.539062 11.742188 31.609375 11.949219 31.609375 C 12.15625 31.609375 12.34375 31.539062 12.492188 31.421875 C 12.640625 31.300781 12.75 31.128906 12.792969 30.933594 C 12.867188 30.601562 13.195312 30.390625 13.527344 30.460938 C 13.859375 30.53125 14.070312 30.859375 13.996094 31.191406 C 13.894531 31.667969 13.628906 32.085938 13.261719 32.378906 C 13.089844 32.515625 12.902344 32.625 12.695312 32.703125 C 13.613281 36.242188 15.660156 39.328125 18.429688 41.554688 C 21.296875 43.855469 24.945312 45.234375 28.914062 45.234375 C 32.882812 45.234375 36.527344 43.855469 39.398438 41.554688 C 42.164062 39.328125 44.214844 36.242188 45.132812 32.703125 C 44.925781 32.625 44.734375 32.515625 44.566406 32.378906 C 44.199219 32.085938 43.933594 31.667969 43.832031 31.191406 C 43.757812 30.859375 43.96875 30.53125 44.300781 30.460938 C 44.632812 30.390625 44.960938 30.601562 45.03125 30.933594 C 45.074219 31.128906 45.183594 31.300781 45.335938 31.421875 C 45.484375 31.539062 45.671875 31.609375 45.878906 31.609375 C 46.085938 31.609375 46.273438 31.539062 46.421875 31.421875 C 46.570312 31.300781 46.679688 31.128906 46.722656 30.933594 C 46.796875 30.601562 47.125 30.390625 47.457031 30.460938 C 47.789062 30.53125 48 30.859375 47.925781 31.191406 C 47.824219 31.667969 47.558594 32.085938 47.191406 32.378906 C 46.957031 32.566406 46.679688 32.707031 46.382812 32.78125"/></g><g id="change3_1"><path d="M 22.34375 16.878906 C 22.835938 16.878906 23.234375 17.648438 23.234375 18.597656 C 23.234375 19.542969 22.835938 20.3125 22.34375 20.3125 C 21.851562 20.3125 21.453125 19.542969 21.453125 18.597656 C 21.453125 17.648438 21.851562 16.878906 22.34375 16.878906" fill="#fff" fill-rule="evenodd"/></g><g id="change3_2"><path d="M 36.882812 16.878906 C 37.375 16.878906 37.773438 17.648438 37.773438 18.597656 C 37.773438 19.542969 37.375 20.3125 36.882812 20.3125 C 36.390625 20.3125 35.992188 19.542969 35.992188 18.597656 C 35.992188 17.648438 36.390625 16.878906 36.882812 16.878906" fill="#fff" fill-rule="evenodd"/></g></g></svg>