<?xml version="1.0" encoding="UTF-8" standalone="no"?><svg xmlns="http://www.w3.org/2000/svg" xmlns:xlink="http://www.w3.org/1999/xlink" fill="none" height="490.5" preserveAspectRatio="xMidYMid meet" style="fill: none" version="1" viewBox="-2.4 -2.3 494.9 490.5" width="494.9" zoomAndPan="magnify"><g id="change1_1"><path clip-rule="evenodd" d="M305.635 10.7346C299.176 0.425774 285.336 -2.25545 275.495 4.89537L229.947 37.9903C224.096 42.2418 216.469 43.1831 209.759 40.4817L157.532 19.4533C146.247 14.9097 133.475 20.8751 129.716 32.445L112.32 85.9916C110.085 92.8704 104.468 98.115 97.4525 99.8731L42.8396 113.559C31.0394 116.516 24.2128 128.85 27.9725 140.419L45.3726 193.965C47.6079 200.843 46.1462 208.388 41.5037 213.934L5.36544 257.107C-2.44296 266.435 -0.716338 280.426 9.12569 287.576L54.6759 320.668C60.5274 324.919 63.7795 331.882 63.2836 339.097L59.4235 395.267C58.5895 407.403 68.2098 417.707 80.3749 417.706L136.677 417.704C143.909 417.704 150.633 421.426 154.473 427.555L184.365 475.265C190.824 485.574 204.664 488.255 214.505 481.105L260.053 448.01C265.904 443.758 273.531 442.817 280.241 445.518L332.468 466.547C343.753 471.09 356.525 465.125 360.284 453.555L377.68 400.008C379.915 393.13 385.532 387.885 392.547 386.127L447.16 372.441C458.961 369.484 465.787 357.15 462.028 345.581L444.627 292.035C442.392 285.157 443.854 277.612 448.496 272.066L484.635 228.893C492.443 219.565 490.716 205.574 480.874 198.424L435.324 165.332C429.473 161.081 426.22 154.118 426.716 146.903L430.577 90.7334C431.411 78.597 421.79 68.2932 409.625 68.2936L353.323 68.2957C346.091 68.296 339.367 64.5744 335.527 58.4454L305.635 10.7346ZM216.5 325.37L341.435 200.435L314.565 173.565L216.5 271.63L174.435 229.565L147.565 256.435L216.5 325.37Z" fill="#9a001a" fill-rule="evenodd"/></g></svg>