<?xml version="1.0" encoding="UTF-8" standalone="no"?><svg xmlns="http://www.w3.org/2000/svg" xmlns:xlink="http://www.w3.org/1999/xlink" fill="#000000" height="198.4" preserveAspectRatio="xMidYMid meet" version="1.1" viewBox="113.0 113.4 199.2 198.4" width="199.2" zoomAndPan="magnify">
 <g id="change1_1">
  <path d="m291.59 213.97c-3.71 0-7.19 0.99-10.2 2.71-1.15 0.66-2.24 1.43-3.24 2.3-2.83 1.64-7.03 3.21-10.61 1v-48c0-8.11-6.58-14.69-14.69-14.69h-48.6c-1.48-3.15-0.34-6.65 1.05-9.25 3.45-3.68 5.56-8.63 5.56-14.07 0-11.36-9.21-20.58-20.58-20.58s-20.58 9.22-20.58 20.58c0 3.71 0.99 7.19 2.71 10.2 0.66 1.16 1.43 2.24 2.3 3.25 1.53 2.63 2.99 6.46 1.39 9.87h-48.39c-8.11 0-14.69 6.58-14.69 14.69v48c3.58 2.21 7.78 0.64 10.61-1 1-0.87 2.09-1.64 3.25-2.3 3-1.72 6.48-2.71 10.19-2.71 11.38 0 20.59 9.22 20.59 20.58 0 11.37-9.21 20.59-20.59 20.59-5.44 0-10.38-2.12-14.06-5.57-2.8-1.5-6.66-2.71-9.99-0.66v48.21c0 8.11 6.58 14.69 14.69 14.69h48c2.2-3.58 0.64-7.78-1-10.61-0.87-1-1.64-2.08-2.3-3.24-1.72-3.01-2.71-6.49-2.71-10.2 0-11.37 9.21-20.58 20.58-20.58s20.58 9.21 20.58 20.58c0 5.44-2.11 10.38-5.56 14.07-1.5 2.79-2.71 6.65-0.66 9.98h48.21c8.11 0 14.69-6.58 14.69-14.69v-48.21c3.33-2.05 7.19-0.84 9.99 0.66 3.68 3.45 8.62 5.57 14.06 5.57 11.37 0 20.59-9.22 20.59-20.59 0-11.36-9.22-20.58-20.59-20.58" fill="#9a001a"/>
 </g>
</svg>